<?xml version="1.0" standalone="no"?>
<!DOCTYPE svg PUBLIC "-//W3C//DTD SVG 20010904//EN"
 "http://www.w3.org/TR/2001/REC-SVG-20010904/DTD/svg10.dtd">
<svg version="1.0" xmlns="http://www.w3.org/2000/svg"
 width="300.000000pt" height="168.000000pt" viewBox="0 0 300.000000 168.000000"
 preserveAspectRatio="xMidYMid meet">

<g transform="translate(0.000000,168.000000) scale(0.100000,-0.100000)"
fill="#000000" stroke="none">
<path d="M321 1345 c-1 -12 -14 -28 -33 -38 -42 -23 -113 -90 -143 -136 -13
-20 -31 -63 -41 -95 -29 -105 -7 -279 44 -338 8 -10 12 -18 9 -18 -15 0 60
-78 113 -119 45 -34 151 -61 240 -61 95 0 120 7 113 28 -4 13 -3 14 5 4 23
-33 197 86 176 119 -4 7 -3 9 3 6 10 -6 51 57 58 90 32 142 36 173 30 225 -18
154 -136 281 -293 318 -67 15 -161 9 -176 -12 -7 -9 -27 -20 -46 -26 -19 -5
-43 -13 -52 -17 -13 -5 -15 -2 -11 14 5 20 91 55 158 64 21 3 16 4 -16 6 -26
0 -65 -5 -87 -13 -37 -13 -41 -13 -45 2 -4 13 -5 13 -6 -3z m284 -43 c46 -18
129 -72 121 -79 -2 -3 -37 11 -78 31 -40 20 -95 39 -123 42 -72 8 -83 13 -65
25 18 12 90 3 145 -19z m-305 -27 c0 -8 -4 -15 -9 -15 -14 0 -70 -53 -92 -87
l-19 -28 0 27 c0 19 14 38 52 72 56 49 68 55 68 31z m491 -112 l20 -31 -21 5
c-11 3 -20 8 -20 12 0 4 -10 17 -21 30 l-21 23 21 -4 c12 -1 31 -17 42 -35z
m-652 -99 c-10 -13 -10 -17 0 -23 10 -6 10 -14 3 -28 -16 -29 12 -176 43 -229
26 -44 122 -125 172 -145 16 -7 23 -13 15 -16 -24 -9 -121 48 -166 98 -59 66
-87 152 -86 259 1 41 7 93 13 115 11 38 11 38 15 12 2 -16 -2 -35 -9 -43z
m291 34 c0 -5 14 -14 30 -19 48 -17 33 -38 -36 -53 -29 -6 -33 -4 -43 24 -13
38 2 70 31 62 10 -2 18 -9 18 -14z m409 -25 c25 -56 26 -213 1 -213 -5 0 -6
14 -2 33 10 50 6 92 -17 167 -13 42 -13 40 -3 40 5 0 14 -12 21 -27z m-469
-50 c0 -11 -50 -33 -78 -33 -13 0 -13 3 1 23 8 12 21 22 28 22 8 0 16 11 17
25 l4 24 14 -24 c7 -14 13 -30 14 -37z m133 -53 c-12 -31 -20 -39 -32 -34 -9
3 -25 9 -36 12 -36 10 -48 47 -17 55 9 3 36 5 59 6 l41 1 -15 -40z m-113 6 c0
-8 3 -21 6 -29 5 -13 -1 -13 -40 1 l-45 16 27 12 c37 17 52 17 52 0z m414
-220 c-9 -14 -23 -26 -31 -26 -17 0 -16 1 17 55 22 35 25 37 28 18 2 -12 -4
-33 -14 -47z m-36 -48 c-6 -18 -57 -53 -65 -45 -9 9 37 57 55 57 7 0 12 -5 10
-12z m-88 -58 c0 -14 -58 -42 -78 -38 -12 3 -5 11 23 26 45 24 55 26 55 12z
m-255 -40 c3 -5 2 -10 -4 -10 -5 0 -13 5 -16 10 -3 6 -2 10 4 10 5 0 13 -4 16
-10z m145 0 c0 -5 -20 -10 -44 -10 -25 0 -48 5 -51 10 -4 6 13 10 44 10 28 0
51 -4 51 -10z"/>
<path d="M2087 1056 c-27 -7 -61 -22 -75 -33 -88 -65 -113 -205 -56 -314 36
-70 155 -109 275 -89 l69 12 1 84 c1 46 2 95 2 109 0 14 -1 30 -2 35 0 6 -37
10 -86 10 l-85 0 0 -35 c0 -35 0 -35 45 -35 l45 0 0 -55 c0 -50 -2 -55 -25
-61 -14 -3 -40 -3 -59 0 -128 24 -162 208 -54 289 30 23 115 29 176 14 32 -8
32 -8 32 26 0 20 -6 37 -13 40 -36 14 -146 16 -190 3z"/>
<path d="M2665 1061 c-77 -19 -111 -65 -102 -138 6 -55 27 -79 97 -110 96 -43
113 -74 63 -113 -28 -22 -63 -23 -130 -4 -21 6 -23 3 -23 -29 0 -42 14 -49
104 -50 112 -1 175 55 163 145 -7 52 -29 75 -107 110 -70 31 -80 41 -80 75 0
45 56 62 140 42 17 -4 28 48 13 61 -13 12 -105 19 -138 11z"/>
<path d="M1097 1027 c-48 -113 -147 -378 -147 -391 0 -12 10 -16 39 -16 38 0
40 2 57 50 l18 50 92 0 92 0 17 -50 17 -50 48 0 48 0 -84 216 c-46 118 -84
217 -84 220 0 2 -22 4 -50 4 -47 0 -51 -2 -63 -33z m87 -133 c13 -38 27 -77
31 -86 6 -16 0 -18 -58 -18 l-66 0 31 90 c17 50 33 89 35 87 2 -2 14 -35 27
-73z"/>
<path d="M2390 840 l0 -220 45 0 45 0 0 220 0 220 -45 0 -45 0 0 -220z"/>
<path d="M2887 1043 c7 -17 30 -17 36 0 4 8 6 7 6 -3 1 -9 -5 -22 -11 -30 -11
-12 -10 -12 5 0 25 19 17 43 -14 44 -18 1 -25 -3 -22 -11z"/>
<path d="M1550 937 c-9 -7 -24 -23 -33 -37 l-17 -24 0 32 c0 30 -2 32 -35 32
l-35 0 0 -160 0 -160 40 0 40 0 0 88 c0 115 18 156 73 160 36 3 37 4 37 43 0
36 -2 39 -27 39 -16 0 -35 -6 -43 -13z"/>
<path d="M1724 936 c-17 -8 -42 -29 -55 -47 -31 -44 -34 -157 -5 -205 32 -54
95 -78 173 -67 41 5 43 7 43 39 l0 33 -48 -6 c-64 -7 -92 15 -99 80 -10 86 35
138 107 122 31 -7 31 -6 28 27 -3 33 -3 33 -58 35 -30 2 -69 -4 -86 -11z"/>
<path d="M94 477 c-3 -8 -4 -47 -2 -88 l3 -74 398 -3 398 -2 -3 87 -3 88 -393
3 c-323 2 -393 0 -398 -11z m407 -27 c30 -17 23 -33 -11 -26 -16 3 -30 1 -30
-4 0 -5 10 -10 23 -12 16 -2 23 -11 25 -30 3 -22 -2 -29 -21 -33 -35 -9 -70
-2 -75 14 -4 11 2 13 27 8 37 -8 41 5 6 21 -31 14 -32 36 -3 56 26 19 33 19
59 6z m-94 -12 c-2 -8 -15 -12 -30 -10 -15 2 -27 -1 -27 -7 0 -6 9 -11 20 -11
32 0 24 -30 -7 -31 l-28 -2 28 -4 c48 -7 33 -33 -19 -33 l-46 0 7 48 c4 26 9
50 12 55 2 4 25 7 49 7 32 0 44 -4 41 -12z m227 3 c3 -5 3 -30 0 -55 -7 -48
-27 -62 -37 -26 -3 11 -10 20 -15 20 -6 0 -14 -9 -17 -20 -4 -11 -15 -20 -27
-20 -14 0 -18 5 -14 16 3 9 9 33 12 55 6 38 7 39 50 39 23 0 45 -4 48 -9z m63
-46 c-8 -44 -14 -55 -29 -55 -16 0 -18 5 -13 38 11 62 16 72 34 72 16 0 17 -5
8 -55z"/>
<path d="M575 419 c-10 -15 1 -23 20 -15 9 3 13 10 10 16 -8 13 -22 13 -30 -1z"/>
</g>
</svg>
