<?xml version="1.0" standalone="no"?>
<!DOCTYPE svg PUBLIC "-//W3C//DTD SVG 20010904//EN"
 "http://www.w3.org/TR/2001/REC-SVG-20010904/DTD/svg10.dtd">
<svg version="1.0" xmlns="http://www.w3.org/2000/svg"
 width="3840.000000pt" height="2160.000000pt" viewBox="0 0 3840.000000 2160.000000"
 preserveAspectRatio="xMidYMid meet">

<g transform="translate(0.000000,2160.000000) scale(0.100000,-0.100000)"
fill="#000000" stroke="none">
<path d="M3822 15248 c-151 -291 -478 -954 -557 -1128 -26 -58 -56 -123 -66
-145 -9 -22 -43 -96 -74 -165 -54 -119 -163 -369 -254 -582 -155 -367 -387
-969 -513 -1333 -294 -852 -574 -1686 -693 -2070 -25 -82 -57 -184 -70 -225
-65 -209 -104 -338 -111 -365 -5 -25 -28 -103 -84 -290 -5 -16 -32 -113 -60
-215 -28 -102 -66 -237 -85 -300 -18 -63 -45 -162 -60 -220 -15 -58 -47 -175
-70 -260 -163 -591 -345 -1312 -370 -1460 -3 -19 -13 -67 -21 -107 -9 -40 -13
-76 -10 -81 3 -5 36 -21 73 -36 37 -16 88 -37 113 -49 175 -78 318 -140 337
-144 19 -5 24 5 58 109 20 62 47 142 60 178 13 36 46 128 74 205 27 77 97 266
155 419 58 154 106 281 106 283 0 2 5 1 12 -3 7 -5 8 -3 4 5 -5 7 34 121 90
266 55 140 101 247 103 238 2 -13 5 -13 11 -3 11 18 37 21 37 4 0 -11 -3 -11
-16 -1 -12 10 -14 9 -8 -6 4 -11 3 -16 -3 -12 -6 3 -10 -1 -10 -10 0 -9 4 -14
8 -11 5 3 22 -8 37 -24 15 -16 31 -27 35 -25 4 2 7 -2 7 -10 0 -8 -5 -13 -11
-12 -6 1 -10 -4 -8 -11 1 -8 -2 -11 -8 -7 -8 5 -8 11 0 20 12 14 -11 41 -24
27 -4 -4 -12 -8 -17 -8 -5 -1 -12 -2 -15 -3 -4 0 6 -11 20 -22 20 -16 26 -28
22 -43 -4 -19 -4 -19 8 -4 11 15 13 15 25 0 11 -15 11 -15 6 3 l-5 20 15 -20
c9 -11 20 -20 25 -20 4 0 11 -3 15 -7 9 -9 -16 -5 -32 5 -8 5 -13 3 -13 -5 0
-11 -2 -10 -9 0 -7 11 -10 10 -15 -3 -9 -24 -8 -27 7 -19 9 6 9 4 1 -7 -9 -12
-10 -20 -5 -46 1 -5 6 -1 12 7 8 12 9 10 4 -8 -6 -21 -5 -22 13 -11 12 7 19
16 16 20 -2 4 0 11 6 14 6 4 9 1 8 -6 -2 -7 2 -13 9 -14 6 0 15 -4 20 -9 4 -5
3 -6 -3 -3 -7 4 -17 0 -23 -7 -10 -11 -9 -21 4 -45 8 -17 18 -31 21 -31 3 0 3
4 0 8 -3 5 -7 21 -10 37 -4 21 -2 25 6 17 8 -8 15 -7 26 6 10 12 9 9 -2 -10
-14 -24 -14 -27 1 -40 15 -11 16 -11 10 5 -4 11 -3 16 4 12 13 -9 6 -30 -9
-30 -13 0 -17 -14 -4 -16 4 0 13 -6 21 -12 12 -10 14 -9 8 5 -3 10 -2 20 4 23
5 4 7 11 3 16 -3 5 -2 9 3 8 23 -4 24 4 2 29 l-24 27 31 -27 c24 -23 33 -26
44 -15 12 10 12 9 1 -5 -7 -10 -17 -16 -21 -13 -17 10 -29 -20 -15 -38 10 -14
14 -15 18 -5 4 10 6 10 6 -1 1 -11 4 -11 19 0 15 12 16 12 7 -1 -18 -26 -7
-70 16 -70 6 0 8 4 4 9 -3 5 -1 12 4 15 5 4 12 2 15 -3 4 -5 2 -12 -4 -16 -6
-4 -8 -11 -4 -16 4 -6 11 -6 19 1 9 8 15 8 20 0 4 -6 3 -9 -2 -8 -4 2 -10 -1
-12 -7 -2 -5 -10 -19 -17 -30 -17 -24 -18 -39 -2 -29 6 4 8 3 4 -4 -3 -6 -2
-13 4 -17 5 -3 10 -2 10 4 0 5 3 17 7 27 5 13 3 15 -7 9 -9 -6 -11 -4 -5 5 6
10 11 9 22 -5 7 -11 13 -26 13 -36 0 -21 49 -56 51 -37 1 7 1 17 0 22 -1 5 5
3 14 -4 14 -12 15 -10 11 14 -3 16 -1 24 5 20 6 -3 8 -8 5 -11 -8 -8 13 -43
26 -43 6 0 5 7 -3 18 -13 16 -12 16 4 3 17 -13 17 -16 4 -26 -11 -8 -13 -16
-6 -26 7 -12 9 -12 9 0 0 8 3 11 6 8 4 -4 2 -13 -5 -21 -10 -11 -7 -19 14 -40
30 -30 31 -36 13 -48 -10 -8 -10 -9 2 -5 19 5 26 37 10 47 -9 5 -9 9 -1 14 6
4 11 2 11 -4 0 -6 4 -9 9 -6 5 4 8 14 6 24 -2 9 -4 20 -4 24 -1 4 -9 5 -19 3
-12 -2 -18 4 -20 18 -1 17 1 19 8 7 9 -13 10 -13 10 0 0 13 1 13 10 0 8 -13
10 -13 10 2 0 21 16 32 26 17 4 -7 3 -9 -3 -6 -18 11 -22 -30 -6 -53 14 -20
16 -20 28 -3 7 10 11 21 9 25 -2 4 0 9 5 12 4 3 8 -2 8 -12 0 -50 4 -73 12
-68 4 3 7 16 6 29 -2 15 2 24 11 24 10 0 11 -4 4 -11 -18 -18 -10 -30 9 -12
13 12 21 14 26 6 4 -6 1 -9 -7 -8 -7 2 -12 -3 -10 -10 1 -8 -2 -11 -7 -8 -5 3
-14 -1 -20 -8 -8 -10 -9 -16 -1 -21 6 -3 8 -10 5 -15 -3 -4 2 -10 9 -13 17 -7
42 18 27 27 -5 3 -12 1 -14 -4 -3 -6 -4 -5 -3 2 2 7 9 13 17 13 8 1 13 7 11
14 -1 7 1 10 6 7 8 -4 9 -56 2 -63 -4 -4 -7 -21 -9 -39 0 -8 -6 -12 -11 -9 -6
4 -8 10 -5 15 3 5 1 11 -4 14 -13 8 -7 -22 7 -36 9 -9 15 -3 27 23 16 34 16
34 10 4 -5 -28 -4 -29 10 -11 8 10 12 22 10 26 -3 4 3 14 13 21 15 13 16 12 4
-3 -9 -11 -10 -18 -2 -23 5 -3 10 -1 10 6 0 7 3 10 6 7 9 -10 -16 -49 -27 -43
-5 4 -9 -1 -9 -10 0 -9 5 -13 10 -10 6 3 10 1 10 -6 0 -7 3 -9 7 -5 8 7 9 11
12 39 1 9 4 8 10 -2 11 -18 4 -63 -12 -76 -7 -5 -13 -19 -15 -30 -3 -20 -2
-20 13 -1 8 11 15 15 15 10 0 -6 -4 -14 -9 -20 -5 -5 -11 -18 -14 -29 -4 -18
-5 -18 -6 3 0 12 -5 22 -10 22 -10 0 -7 -30 4 -53 4 -6 -3 -1 -14 13 -18 21
-20 22 -15 5 4 -11 14 -26 22 -32 12 -10 13 -13 2 -13 -7 0 -10 -3 -7 -6 3 -4
1 -16 -5 -28 -7 -11 -11 -25 -10 -29 1 -5 -3 -5 -9 -1 -7 4 -9 0 -5 -13 4 -12
-3 -31 -19 -53 -14 -19 -26 -31 -26 -27 -1 4 -2 11 -3 16 0 5 -4 12 -8 16 -9
9 -4 -17 6 -34 8 -12 12 -11 24 5 14 18 14 18 8 1 -3 -10 -6 -23 -6 -28 0 -6
-4 -8 -9 -5 -5 4 -7 -4 -3 -16 4 -15 2 -19 -7 -14 -8 5 -11 3 -9 -5 4 -18 -23
-99 -31 -94 -4 2 -7 -4 -8 -13 -2 -29 -12 -65 -20 -71 -5 -3 -9 -13 -9 -21 -2
-24 -126 -364 -138 -379 -25 -32 35 0 239 126 116 71 221 136 234 144 14 8 30
17 35 22 6 4 74 47 151 95 l140 88 7 204 c28 839 26 817 169 1557 9 45 14 52
37 57 22 5 304 50 532 86 80 13 289 45 485 75 737 112 1976 271 2164 277 l73
3 34 -110 c70 -225 180 -623 229 -830 144 -608 192 -889 210 -1225 3 -63 8
-125 11 -137 2 -14 31 -38 78 -68 40 -25 86 -57 102 -70 16 -14 32 -25 36 -25
9 0 221 -144 273 -185 43 -35 84 -59 90 -53 2 2 -14 55 -36 118 -22 63 -37
120 -34 127 2 8 1 12 -4 8 -5 -3 -15 12 -22 32 -6 21 -54 150 -105 287 -52
137 -92 251 -90 253 2 3 9 -12 16 -31 9 -29 14 -33 25 -23 7 6 10 17 7 22 -3
6 3 3 13 -5 17 -14 18 -13 12 3 -9 23 0 22 13 -2 9 -17 7 -19 -10 -16 -28 5
-34 -11 -14 -37 16 -22 16 -22 11 -2 -3 16 0 21 17 20 11 -1 27 -5 34 -9 11
-8 17 5 12 28 -1 5 2 7 5 3 4 -4 15 2 25 14 13 16 19 18 25 8 5 -8 4 -11 -3
-6 -13 8 -24 -9 -26 -38 -1 -11 -7 -22 -13 -22 -7 -1 -15 -3 -18 -4 -3 -1 -15
-3 -27 -4 -23 -1 -40 -36 -18 -36 6 0 8 6 4 13 -6 10 -4 10 7 0 16 -16 33 -17
23 -1 -4 7 -3 8 4 4 7 -4 12 -1 12 6 0 11 2 10 9 0 7 -11 9 -10 15 3 3 9 10
14 15 10 13 -7 30 25 24 45 -4 13 -3 13 6 0 6 -8 16 -15 23 -15 7 0 13 -7 13
-15 0 -8 -6 -15 -14 -15 -8 0 -16 -6 -19 -14 -3 -8 0 -11 7 -7 7 5 9 1 4 -11
-5 -15 -3 -16 8 -5 17 16 26 15 33 -4 3 -8 2 -12 -4 -9 -15 9 0 -28 17 -42 8
-6 14 -14 14 -17 -3 -25 1 -36 9 -31 7 4 8 11 1 18 -12 15 -12 29 0 44 7 7 6
14 -1 18 -5 3 -10 -1 -10 -10 0 -9 -4 -14 -9 -11 -5 3 -7 32 -6 63 2 38 0 51
-5 38 -7 -16 -9 -17 -9 -3 -1 9 4 20 9 23 6 4 7 11 4 17 -9 13 -14 71 -6 63 4
-3 7 -16 9 -28 7 -72 27 -126 41 -112 3 2 -1 11 -7 19 -7 8 -10 19 -7 24 6 11
46 10 64 -1 7 -5 12 -3 12 5 0 9 3 9 10 -2 9 -13 10 -13 10 0 0 12 2 12 9 2 7
-11 9 -11 14 2 8 20 1 23 -55 21 -45 -1 -47 0 -31 17 11 12 20 15 26 9 16 -16
38 20 24 39 -9 12 -9 13 3 3 16 -15 23 -46 8 -37 -6 4 -9 1 -6 -7 3 -8 14 -13
26 -13 12 1 19 -2 17 -7 -10 -15 17 -21 32 -6 10 10 11 17 4 21 -6 4 -11 1
-11 -6 0 -10 -3 -9 -9 2 -12 18 -4 33 12 23 17 -11 51 -10 59 1 4 6 0 18 -8
27 -12 14 -12 16 1 16 8 0 12 -4 10 -8 -3 -3 3 -13 12 -20 15 -12 16 -12 11 3
-5 11 -2 15 10 13 9 -1 20 3 24 9 5 7 8 6 8 -3 0 -10 8 -7 27 10 15 13 22 17
15 8 -6 -9 -9 -19 -5 -22 3 -4 12 1 20 11 12 16 13 16 6 -2 -4 -13 -3 -17 4
-13 7 5 9 -1 6 -15 -3 -17 -2 -19 5 -10 7 11 10 11 15 -2 3 -8 2 -18 -4 -21
-5 -4 -6 -11 -3 -17 4 -7 10 -5 16 6 12 21 28 21 28 -1 0 -15 2 -16 10 -3 5 8
5 19 0 25 -5 6 -5 17 2 25 8 12 9 12 4 -2 -3 -11 3 -23 17 -33 12 -8 18 -15
14 -15 -4 0 -3 -9 3 -20 6 -11 16 -20 23 -20 8 0 7 3 -2 9 -13 8 -13 12 -1 26
16 19 21 55 8 55 -4 0 -8 -11 -8 -24 0 -14 -4 -27 -9 -30 -5 -3 -7 7 -6 23 1
16 -2 35 -7 43 -7 9 -8 5 -5 -15 5 -34 -4 -27 -18 14 -10 32 -31 37 -29 7 1
-10 -3 -18 -8 -18 -5 0 -6 -5 -2 -12 4 -7 3 -8 -4 -4 -8 5 -9 13 -2 25 6 12 5
22 -3 31 -7 8 -8 10 -1 7 14 -8 47 27 37 38 -5 4 -2 5 5 1 9 -5 10 -12 3 -19
-6 -8 -4 -19 6 -32 15 -20 15 -20 10 3 -3 12 -1 20 4 16 5 -3 9 -13 9 -22 0
-14 2 -15 10 -2 6 10 4 20 -6 31 -13 14 -12 18 3 30 16 13 17 12 5 -3 -9 -11
-10 -18 -2 -23 5 -3 10 -1 10 6 0 29 15 -6 20 -46 0 -5 7 4 14 20 7 17 11 34
8 39 -3 5 0 6 6 2 6 -4 9 -13 6 -20 -3 -8 -1 -17 5 -21 6 -3 11 0 11 7 0 9 3
9 10 -2 5 -8 10 -10 10 -4 0 17 40 60 40 43 1 -10 5 -8 15 5 11 14 15 16 15 5
1 -8 7 -3 14 10 7 13 12 36 11 51 -1 17 3 27 11 27 8 0 12 -3 9 -5 -3 -3 0
-11 7 -19 9 -11 8 -13 -1 -11 -8 2 -15 -4 -16 -12 -2 -8 -6 -24 -10 -35 -7
-20 -6 -20 9 -1 9 11 16 25 16 30 0 6 5 4 11 -4 7 -11 9 -7 7 19 -2 26 1 35
15 37 10 1 14 -2 10 -9 -4 -7 0 -8 11 -4 9 4 15 3 11 -2 -3 -6 3 -14 12 -20
11 -6 13 -11 5 -11 -8 0 -10 -5 -6 -12 5 -9 2 -9 -9 1 -11 8 -17 9 -17 3 0
-18 34 -31 53 -21 9 6 17 15 17 21 0 7 -6 6 -15 -2 -13 -11 -14 -10 -9 4 8 20
29 16 29 -5 0 -8 5 -17 10 -21 6 -5 5 -8 -2 -8 -7 0 -13 -7 -13 -16 0 -8 -4
-12 -10 -9 -11 7 -14 -8 -3 -18 9 -9 34 13 27 24 -3 5 0 9 5 9 6 0 11 -8 12
-17 0 -10 11 -40 24 -68 13 -27 21 -53 19 -57 -3 -5 0 -8 6 -8 7 0 6 -5 -2
-14 -7 -8 -17 -12 -22 -9 -4 3 -2 10 5 15 11 7 10 8 -4 4 -10 -3 -15 -2 -12 3
3 5 0 13 -6 17 -8 4 -9 3 -5 -4 4 -7 2 -12 -4 -12 -8 0 -9 7 -5 18 4 9 8 31
11 47 2 22 1 26 -6 15 -8 -13 -10 -13 -10 0 0 11 -4 10 -17 -4 -13 -13 -15
-20 -6 -23 9 -3 10 -10 3 -23 -5 -10 -7 -27 -4 -37 5 -15 4 -15 -5 -3 -9 13
-11 13 -11 0 -1 -13 -2 -12 -10 1 -5 9 -8 25 -6 36 3 11 0 26 -6 34 -8 12 -9
12 -5 -1 2 -8 0 -28 -5 -45 -6 -16 -12 -44 -14 -62 -2 -18 -9 -43 -14 -55 -8
-18 -9 -16 -4 14 7 43 -4 101 -17 92 -5 -3 -5 -13 1 -24 12 -23 13 -73 1 -66
-4 3 -7 18 -5 33 3 25 3 24 -6 -5 -13 -39 -22 -42 -15 -4 4 22 4 24 -4 7 -9
-18 -10 -18 -10 -2 -1 10 -5 15 -11 12 -5 -3 -10 -1 -10 4 0 6 5 11 10 11 7 0
7 6 0 19 -5 11 -10 28 -9 38 1 13 3 11 9 -7 5 -16 8 -19 9 -8 1 9 6 20 13 24
8 5 9 2 5 -9 -3 -9 -1 -19 5 -23 7 -5 8 -2 3 6 -6 9 -4 11 4 5 10 -6 11 -3 2
13 -8 15 -8 21 1 24 9 3 9 6 0 12 -7 4 -12 2 -12 -4 0 -6 -5 -8 -11 -4 -8 5
-8 8 0 14 9 5 8 10 -4 20 -13 11 -15 10 -12 -6 1 -11 6 -25 10 -31 5 -8 4 -13
-2 -13 -6 0 -11 6 -11 13 0 6 -5 4 -11 -6 -6 -10 -8 -32 -5 -50 4 -28 3 -26
-9 8 -14 42 -15 43 -19 8 -1 -12 1 -20 6 -17 4 3 8 -3 8 -13 -1 -15 -5 -12
-24 11 l-23 28 2 -41 c1 -22 -2 -38 -7 -35 -5 3 -8 2 -7 -3 1 -4 1 -15 0 -23
-1 -13 -2 -13 -11 0 -9 13 -10 13 -10 0 -1 -12 -3 -11 -11 3 -6 10 -8 24 -6
31 3 7 1 19 -4 27 -8 12 -10 12 -8 -1 3 -30 -1 -51 -10 -46 -4 3 -6 17 -3 31
2 14 0 25 -6 25 -6 0 -9 -10 -7 -21 3 -12 1 -19 -2 -15 -4 4 -12 -6 -18 -21
-9 -22 -9 -33 3 -50 9 -15 10 -23 3 -23 -6 0 -11 8 -11 18 -1 16 -1 16 -11 -1
-5 -9 -7 -22 -3 -29 5 -7 3 -8 -6 -3 -9 6 -11 4 -5 -5 5 -9 4 -11 -3 -6 -8 5
-10 1 -6 -11 5 -15 4 -15 -7 1 -9 15 -9 21 -1 24 7 2 12 8 12 14 0 6 -6 6 -15
-2 -8 -7 -15 -9 -16 -4 0 5 -2 17 -4 27 -2 9 1 15 6 11 5 -3 7 -10 4 -15 -4
-5 -1 -9 5 -9 7 0 9 7 6 16 -3 8 -2 12 4 9 6 -3 7 1 3 10 -5 13 -8 14 -15 3
-5 -8 -7 -3 -4 16 3 16 2 26 -1 22 -8 -8 -14 -32 -16 -63 0 -13 -5 -23 -9 -23
-11 0 -10 18 1 57 5 18 6 35 1 38 -8 5 -18 -32 -23 -87 -2 -15 -6 -31 -10 -34
-4 -4 -7 -12 -7 -18 0 -6 5 -4 10 4 9 13 10 13 10 0 0 -13 1 -13 11 0 8 11 9
9 3 -10 -9 -31 -9 -39 1 -70 6 -20 5 -23 -6 -13 -7 7 -13 29 -12 48 1 19 -3
32 -8 29 -5 -3 -7 -9 -5 -13 3 -4 1 -13 -5 -21 -7 -12 -9 -9 -10 10 -1 14 -1
32 0 40 2 13 1 13 -8 0 -8 -11 -11 -11 -12 -2 -3 27 -4 31 -10 37 -4 3 -9 -1
-12 -10 -4 -8 -2 -15 3 -15 6 0 10 -4 10 -10 0 -5 -7 -7 -15 -4 -11 5 -13 -2
-9 -36 3 -29 2 -40 -6 -35 -6 4 -9 9 -6 12 3 3 1 15 -5 26 -6 10 -7 17 -1 14
11 -8 9 64 -3 83 -5 8 -4 11 3 6 6 -3 9 1 7 11 -2 10 -4 26 -4 36 -1 10 -6 15
-11 12 -7 -4 -7 -12 0 -25 6 -12 6 -21 1 -25 -9 -5 -9 -12 -1 -50 1 -5 2 -19
0 -30 l-1 -20 -9 20 c-7 17 -9 17 -9 3 -1 -10 -5 -18 -11 -18 -5 0 -7 -8 -4
-17 5 -15 4 -16 -6 -3 -9 12 -10 10 -5 -10 l6 -25 -16 25 c-9 14 -14 18 -12 9
3 -9 -1 -16 -8 -16 -7 0 -11 6 -8 13 2 6 -1 15 -8 20 -7 4 -10 3 -6 -2 3 -6 1
-16 -4 -24 -6 -10 -8 4 -6 43 3 32 0 54 -4 50 -5 -5 -9 -29 -10 -54 -2 -30 -7
-46 -15 -46 -9 0 -10 6 -4 16 11 21 16 88 7 97 -7 8 -10 -12 -9 -61 1 -26 0
-27 -9 -10 -8 18 -9 17 -5 -5 6 -29 -8 -59 -18 -41 -4 6 -2 11 3 11 6 0 11 5
11 11 0 8 -5 8 -15 -1 -11 -9 -15 -9 -15 -1 0 7 -5 9 -11 5 -8 -5 -8 -9 1 -14
8 -5 9 -10 2 -14 -6 -3 -13 0 -16 6 -3 7 -3 2 0 -12 4 -19 3 -22 -5 -10 -9 13
-11 13 -11 1 0 -11 -4 -9 -15 5 -8 10 -15 14 -15 7 0 -6 5 -15 10 -18 6 -3 10
-14 10 -23 -1 -13 -4 -11 -14 7 -12 22 -14 23 -23 6 -9 -16 -11 -16 -26 5 -9
13 -13 28 -10 33 3 6 1 7 -5 3 -9 -5 -9 -13 -2 -27 7 -11 7 -19 1 -19 -5 0
-11 -6 -14 -12 -2 -7 -2 -2 0 10 2 15 0 21 -7 17 -5 -3 -10 -15 -10 -26 0 -11
-5 -17 -10 -14 -6 4 -8 10 -5 15 3 5 1 11 -5 15 -5 3 -11 -2 -12 -12 0 -10 -2
-23 -2 -30 -1 -6 -5 -15 -10 -20 -5 -4 -6 9 -2 30 5 24 4 37 -2 33 -6 -3 -8
-23 -6 -43 5 -58 7 -63 15 -57 5 2 6 10 3 18 -3 7 2 13 11 13 19 0 19 -8 0
-33 -8 -10 -15 -23 -15 -28 0 -6 7 -1 15 10 14 19 14 19 15 -2 0 -11 3 -24 8
-28 4 -4 7 -12 7 -17 0 -5 3 -9 8 -9 4 0 10 0 14 0 3 0 -1 8 -9 18 -8 9 -18
31 -22 47 -6 28 -5 29 9 11 8 -11 15 -14 15 -7 0 7 4 10 10 6 5 -3 7 -12 4
-20 -4 -8 -10 -12 -15 -9 -15 9 -10 -3 7 -16 8 -8 14 -9 13 -4 -4 20 2 35 11
29 6 -4 5 -16 -1 -33 -7 -19 -7 -24 0 -17 6 6 12 22 14 35 2 14 9 25 16 25 6
0 16 6 20 14 6 8 11 9 15 3 3 -6 2 -13 -4 -17 -5 -3 -10 -12 -10 -18 0 -8 3
-8 9 2 6 9 11 10 15 2 11 -18 -1 -29 -30 -25 -14 1 -23 0 -20 -3 3 -4 1 -12
-4 -18 -7 -9 -6 -16 4 -24 11 -9 13 -7 12 10 0 12 4 24 11 26 8 3 11 -4 8 -18
-2 -12 -1 -18 3 -15 4 4 8 12 8 17 1 5 2 12 3 16 0 4 8 -2 17 -13 15 -19 15
-19 5 2 -6 12 -6 26 0 35 8 13 10 12 13 -10 0 -5 4 -12 8 -16 4 -4 4 -13 2
-19 -3 -7 1 -18 9 -24 11 -9 18 -8 31 7 12 13 14 21 6 26 -5 3 -7 11 -4 17 4
6 10 5 16 -3 7 -11 8 -9 6 6 -2 14 3 19 17 19 12 0 19 -6 17 -14 -2 -10 0 -11
11 -2 11 9 18 5 36 -18 12 -17 20 -34 17 -39 -3 -4 1 -8 9 -8 10 0 11 5 4 19
-5 10 -7 19 -4 19 3 1 9 2 14 3 5 0 12 4 16 8 9 8 -16 5 -31 -5 -7 -4 -18 3
-27 16 -14 21 -13 25 3 48 l19 24 9 -25 c5 -14 8 -28 6 -32 -9 -14 30 0 41 16
10 13 14 14 18 4 2 -7 4 3 2 22 -2 39 17 115 27 105 4 -4 2 -20 -4 -36 -6 -17
-8 -33 -4 -36 3 -3 1 -12 -5 -19 -7 -8 -7 -14 1 -19 6 -4 9 -1 8 6 -2 7 5 13
15 14 9 0 16 -2 15 -5 -1 -3 4 -15 10 -26 9 -17 9 -24 -2 -33 -13 -11 -26 -5
-26 11 0 5 4 7 9 4 5 -4 6 4 3 16 -5 19 -7 20 -10 5 -2 -10 -8 -14 -15 -10 -7
4 -5 -4 4 -17 13 -20 57 -41 44 -20 -7 11 20 31 30 22 5 -4 5 -1 1 6 -4 7 -11
10 -16 7 -13 -8 -19 22 -7 34 7 7 13 21 13 31 3 46 4 51 13 46 12 -8 4 -65
-11 -85 -12 -14 -11 -15 6 -1 18 14 19 13 13 -3 -4 -11 -3 -16 4 -12 5 4 7 16
4 26 -4 11 -1 26 5 34 6 8 9 19 6 24 -4 5 -2 12 4 16 5 3 10 0 10 -8 0 -8 9
-22 20 -32 18 -16 20 -16 26 -1 3 9 10 13 16 10 5 -4 5 -10 -1 -18 -6 -8 -3
-19 10 -36 15 -18 18 -19 11 -5 -12 26 -6 115 9 129 8 8 10 5 5 -14 -3 -14 -3
-19 0 -12 7 15 24 6 20 -11 -1 -7 -1 -9 1 -4 3 4 9 4 15 1 5 -3 2 -14 -8 -25
-12 -13 -14 -22 -7 -31 6 -7 9 -21 8 -30 -2 -9 4 -23 13 -30 15 -11 15 -11 6
2 -6 8 -10 23 -9 32 2 10 -1 20 -6 24 -5 3 -9 10 -9 16 0 6 10 3 23 -8 l22
-19 -19 23 c-18 20 -15 27 9 22 6 -1 1 9 -11 22 -19 22 -23 75 -4 63 5 -3 7
-12 3 -21 -6 -16 25 -57 37 -49 12 7 6 60 -7 60 -7 0 -13 5 -13 10 0 6 6 10
13 10 15 1 37 -27 30 -38 -2 -4 -1 -6 4 -5 4 2 8 -1 8 -7 0 -5 -3 -9 -7 -7
-13 4 -9 -5 9 -19 9 -8 14 -9 10 -3 -8 14 16 37 28 26 5 -4 5 -1 1 6 -5 7 -11
11 -14 8 -7 -8 -42 24 -42 37 0 6 9 2 20 -8 11 -10 20 -15 20 -10 0 4 6 3 13
-4 10 -8 17 -7 27 2 10 10 12 9 7 -4 -3 -9 -1 -22 4 -30 7 -12 7 4 0 56 -1 6
-6 2 -12 -8 -7 -12 -14 -15 -22 -8 -7 5 -16 11 -22 13 -5 1 -11 12 -12 23 -3
19 -2 19 11 2 12 -15 14 -16 20 -2 7 20 28 15 43 -10 8 -12 12 -15 13 -6 0 11
3 11 15 1 15 -12 16 -11 19 10 1 13 21 13 21 1 0 -5 4 -13 9 -18 5 -4 6 -3 3
3 -8 14 17 37 28 26 5 -4 5 -1 1 6 -6 10 -11 10 -21 2 -10 -8 -15 -8 -20 0 -5
8 -11 7 -22 -2 -20 -16 -45 -19 -40 -5 2 7 10 12 18 12 8 0 13 8 11 20 -3 17
-2 17 15 5 17 -14 17 -14 1 6 -27 31 -22 41 7 14 13 -12 22 -27 18 -33 -3 -6
-1 -7 6 -3 9 6 9 11 1 21 -7 8 -7 15 -1 19 5 3 12 0 15 -6 3 -7 3 3 0 22 -3
19 -2 31 2 27 4 -4 13 -2 21 4 17 14 17 -2 1 -20 -9 -9 -9 -12 -1 -7 6 3 13 0
16 -6 3 -7 5 -4 5 7 -1 11 1 27 4 35 3 8 3 12 1 7 -3 -4 -9 -4 -14 -1 -6 3 -5
12 3 22 11 13 11 14 -1 7 -10 -6 -12 -4 -6 4 9 16 27 0 30 -26 1 -10 12 -40
24 -66 11 -27 24 -61 27 -75 4 -15 10 -31 14 -37 4 -5 40 -109 80 -230 41
-121 74 -221 75 -223 1 -1 49 13 106 31 57 19 173 56 256 83 107 34 153 53
153 64 0 32 -104 425 -165 625 -36 116 -73 244 -84 285 -11 41 -32 118 -46
170 -15 52 -38 138 -52 190 -13 52 -53 203 -89 335 -35 132 -78 290 -94 350
-42 156 -232 855 -275 1010 -77 280 -96 346 -139 500 -217 775 -289 991 -561
1695 -94 243 -154 407 -217 585 -98 278 -103 295 -157 428 -28 71 -103 251
-165 400 -63 150 -130 313 -149 362 -121 311 -351 823 -547 1220 -150 303
-384 741 -512 960 l-64 110 -1040 3 -1041 2 -141 -272z m1307 -1006 c40 -32
59 -68 311 -582 237 -485 281 -580 274 -592 -4 -6 -3 -8 3 -5 9 6 130 -230
125 -245 -1 -5 3 -8 8 -8 6 0 10 -4 10 -9 0 -5 34 -80 76 -167 42 -88 116
-241 165 -341 48 -101 85 -183 82 -183 -3 0 -1 -6 5 -13 6 -7 56 -110 111
-230 98 -214 99 -217 78 -229 -12 -6 -49 -26 -82 -43 -61 -32 -154 -82 -235
-127 -25 -14 -85 -47 -135 -73 -49 -27 -106 -57 -125 -68 -19 -11 -87 -47
-150 -80 -63 -33 -133 -70 -155 -82 -22 -12 -94 -51 -160 -85 -66 -35 -124
-66 -130 -70 -5 -4 -55 -31 -110 -60 -55 -29 -129 -70 -165 -90 -65 -37 -130
-72 -375 -202 -71 -38 -134 -73 -140 -77 -5 -5 -48 -29 -95 -53 -47 -25 -125
-67 -175 -95 -49 -28 -146 -81 -215 -118 -111 -61 -305 -171 -412 -235 -21
-12 -38 -18 -38 -13 0 7 94 65 230 141 113 63 237 136 251 148 8 7 21 37 29
66 7 29 21 71 31 93 20 43 117 293 150 385 11 30 33 87 49 125 15 39 49 122
73 185 25 63 66 169 92 235 26 66 58 149 70 185 13 36 58 155 100 265 42 110
94 247 115 305 20 58 79 220 129 360 51 140 103 274 116 296 60 103 144 123
207 50 57 -65 88 -142 420 -1041 95 -258 116 -314 171 -467 l24 -66 54 30 c88
49 145 80 314 173 88 48 179 98 202 112 l42 24 -50 99 c-27 55 -49 102 -49
105 0 2 -31 70 -70 150 -38 80 -70 147 -70 149 0 2 -51 109 -114 237 -62 129
-155 320 -206 424 -162 336 -431 883 -550 1120 -94 188 -121 234 -149 252 -80
54 -99 33 -276 -319 -81 -161 -214 -423 -296 -583 -81 -159 -216 -423 -298
-585 -233 -455 -1041 -2078 -1114 -2235 -36 -77 -86 -185 -113 -240 -27 -55
-47 -103 -46 -107 1 -5 -3 -8 -8 -8 -6 0 -4 -15 5 -36 8 -20 13 -39 11 -43 -3
-4 -1 -13 5 -21 7 -13 9 -13 10 0 1 8 1 19 0 24 -1 5 5 4 13 -4 17 -13 22 -25
7 -16 -5 3 -11 -1 -15 -9 -5 -15 9 -31 17 -18 2 5 2 2 1 -4 -5 -20 14 -15 19
5 3 9 4 0 2 -21 -1 -21 2 -40 6 -43 5 -3 10 6 10 20 2 38 3 44 11 51 4 4 4 14
1 23 -4 10 -3 14 1 10 4 -3 9 -14 10 -25 3 -19 24 -25 43 -11 10 8 11 4 4 -31
-1 -2 -7 1 -13 6 -24 18 -43 9 -45 -22 -3 -30 -3 -30 8 -5 10 24 11 24 24 7
10 -14 14 -15 19 -5 4 9 5 9 4 -2 -1 -8 6 -31 15 -50 16 -32 17 -33 12 -7 -4
21 -2 28 7 25 7 -3 12 -15 10 -26 -2 -12 2 -22 8 -22 6 0 8 -5 4 -11 -3 -6 -9
-7 -13 -3 -11 16 -34 16 -28 0 4 -9 -4 -21 -19 -31 -13 -8 -24 -12 -23 -8 4
21 -2 45 -8 39 -5 -4 -8 -12 -8 -17 0 -5 -4 -9 -10 -8 -5 0 -12 -8 -16 -18 -7
-17 -8 -17 -8 0 -1 9 -6 17 -12 17 -5 0 -7 -5 -4 -10 4 -6 1 -18 -7 -27 -11
-14 -10 -15 12 -8 29 9 25 3 -9 -15 -13 -6 -21 -7 -17 -2 3 6 2 13 -3 16 -5 4
-11 -4 -13 -16 -2 -13 -6 -21 -10 -18 -4 3 -15 -5 -23 -18 -17 -24 -35 -21
-35 5 0 13 3 13 15 3 12 -10 15 -9 15 4 0 11 -5 14 -12 10 -8 -5 -9 -2 -5 9 4
10 2 28 -3 42 -5 14 -5 27 -1 30 5 3 12 -13 16 -34 7 -43 35 -66 35 -28 0 18
-2 19 -10 7 -8 -13 -10 -13 -10 2 0 9 5 18 11 20 7 2 7 11 -1 28 -9 23 -10 23
-6 3 2 -13 0 -26 -5 -29 -8 -4 -14 34 -10 59 1 5 -3 6 -9 2 -5 -3 -10 -2 -10
4 0 5 4 11 8 13 14 5 24 58 12 58 -6 0 -9 -3 -7 -7 3 -5 1 -17 -4 -28 -6 -17
-8 -17 -8 -2 -1 9 -5 17 -11 17 -5 0 -6 -7 -3 -17 4 -10 2 -14 -5 -9 -6 3 -10
15 -9 26 1 10 5 16 9 14 4 -3 13 -2 19 2 8 5 8 9 -1 14 -9 6 -9 12 0 30 6 12
9 28 6 36 -3 8 -2 13 3 10 13 -8 21 47 9 59 -8 7 -9 5 -5 -7 4 -10 2 -18 -4
-18 -6 0 -8 -4 -5 -9 3 -4 -3 -16 -14 -26 -11 -10 -20 -25 -20 -34 0 -9 -7
-27 -16 -39 -8 -12 -12 -22 -8 -22 3 0 1 -7 -6 -15 -7 -9 -10 -18 -6 -22 3 -3
-2 -16 -11 -27 -13 -15 -10 -14 10 3 15 14 27 20 27 14 0 -6 -7 -16 -16 -23
-25 -21 -36 -48 -22 -56 6 -4 8 -3 5 3 -8 13 22 55 34 48 11 -7 12 -26 1 -22
-4 1 -7 0 -8 -3 0 -3 -6 -15 -13 -28 -12 -23 -13 -23 -34 -6 -12 10 -17 12
-10 5 6 -7 9 -21 6 -30 -4 -14 -3 -14 6 -1 10 13 15 8 12 -12 0 -4 7 -4 17 -1
15 6 15 5 3 -11 -8 -9 -10 -16 -5 -14 5 2 9 -1 9 -7 0 -5 -2 -9 -5 -8 -3 1 -6
-8 -7 -20 0 -12 1 -16 4 -9 3 6 10 9 15 6 7 -5 8 -2 3 6 -6 9 -4 11 5 5 8 -5
11 -4 7 2 -3 5 0 10 8 10 23 0 18 -11 -13 -29 -23 -14 -31 -15 -41 -5 -10 9
-11 9 -6 -4 6 -17 -70 -73 -86 -63 -5 3 -8 2 -7 -3 2 -5 -14 -24 -35 -42 -44
-39 -65 -81 -327 -661 -82 -181 -191 -431 -230 -528 -7 -18 -15 -31 -17 -29
-2 3 26 75 62 161 36 87 65 159 65 161 0 2 18 43 40 90 22 47 40 88 40 91 0 6
163 376 215 489 13 28 48 106 78 175 30 69 75 168 100 220 24 52 77 165 117
250 365 779 612 1286 1213 2487 292 584 535 1059 540 1056 6 -3 7 -1 3 5 -6
10 245 517 317 639 54 92 142 114 216 55z m1902 -4025 c16 -33 27 -67 24 -76
-3 -8 -3 -12 1 -8 6 5 134 -241 134 -257 0 -2 47 -102 105 -222 58 -120 115
-239 127 -264 11 -25 34 -71 50 -103 16 -31 26 -63 22 -70 -4 -6 -4 -9 1 -5 8
7 63 -100 71 -136 2 -10 8 -24 15 -32 14 -17 55 -103 124 -259 29 -66 73 -163
97 -215 25 -52 57 -122 73 -155 38 -83 83 -179 150 -320 60 -129 139 -300 187
-405 17 -36 43 -91 60 -123 16 -32 28 -60 26 -62 -5 -6 -140 264 -143 285 0 3
-35 75 -77 160 -87 176 -221 453 -266 550 -89 191 -134 283 -223 468 -55 112
-96 208 -93 214 4 6 3 8 -3 5 -9 -6 -45 65 -212 416 -29 59 -49 113 -45 119 4
6 3 8 -3 5 -13 -8 -36 41 -27 55 4 6 3 8 -3 5 -13 -8 -88 147 -78 163 5 8 4
11 -2 7 -13 -8 -26 20 -16 35 3 6 2 8 -4 5 -6 -4 -35 47 -68 118 -51 109 -61
124 -79 120 -12 -3 -91 -19 -176 -36 -169 -33 -163 -32 -395 -85 -205 -47
-587 -141 -645 -159 -25 -7 -108 -30 -185 -50 -77 -20 -185 -50 -240 -67 -55
-16 -152 -44 -215 -63 -568 -163 -1394 -436 -2164 -714 -77 -28 -141 -49 -143
-47 -5 5 424 165 967 361 1021 368 2225 712 3044 869 94 18 176 33 183 33 7 0
27 -27 44 -60z m-4023 -127 c-7 -10 -14 -17 -17 -15 -4 4 18 35 25 35 2 0 -1
-9 -8 -20z m18 -46 c2 -12 -1 -13 -12 -3 -7 6 -11 16 -8 21 7 11 17 3 20 -18z
m429 6 c-10 -11 -21 -18 -23 -15 -3 3 3 12 14 20 27 20 30 18 9 -5z m-35 -20
c0 -5 -10 -15 -22 -21 -23 -12 -23 -12 -4 10 21 23 26 26 26 11z m-517 -22
c-3 -13 -6 -31 -6 -40 -1 -9 -5 -16 -10 -15 -14 3 -18 -35 -5 -50 6 -7 13 -11
17 -9 9 6 8 -40 -1 -49 -4 -4 -3 -18 2 -31 13 -32 -11 -92 -28 -71 -7 8 -9 17
-5 20 3 4 -1 9 -10 13 -14 5 -15 8 -2 28 8 13 12 26 8 31 -5 4 -3 5 4 1 15 -8
27 10 16 27 -4 6 -8 19 -8 27 0 8 -6 14 -12 13 -14 -3 -17 9 -5 21 4 4 7 11 8
14 0 4 5 18 11 32 6 14 14 33 17 43 8 25 16 21 9 -5z m232 3 c3 -5 2 -12 -3
-15 -5 -3 -9 1 -9 9 0 17 3 19 12 6z m22 -28 c-4 -3 1 -16 10 -27 18 -21 18
-21 -4 -2 -20 16 -23 36 -6 36 4 0 3 -3 0 -7z m67 -34 c-17 -19 -34 -17 -34 4
0 7 4 6 10 -3 8 -13 14 -8 12 11 -1 3 6 6 14 6 12 0 11 -4 -2 -18z m-70 -8 c9
-7 16 -18 16 -24 0 -6 -7 -2 -15 10 -9 13 -22 20 -30 17 -8 -4 -15 -2 -15 4 0
13 24 10 44 -7z m76 -25 c0 -2 -7 -7 -16 -10 -8 -3 -12 -2 -9 4 6 10 25 14 25
6z m-170 -100 c0 -3 -4 -8 -10 -11 -5 -3 -10 -1 -10 4 0 6 5 11 10 11 6 0 10
-2 10 -4z m-315 -825 c-47 -21 -92 -36 -85 -28 7 8 103 46 115 46 6 0 -8 -8
-30 -18z m-674 -768 c-12 -20 -14 -14 -5 12 4 9 9 14 11 11 3 -2 0 -13 -6 -23z
m-98 -303 c3 -11 2 -18 -3 -15 -9 6 -43 -81 -36 -93 3 -5 -1 -9 -9 -9 -10 0
-9 11 7 51 11 28 23 59 25 69 7 22 9 22 16 -3z m-16 -87 c-4 -3 -1 -13 6 -22
11 -14 10 -14 -5 -2 -16 12 -16 31 -1 31 4 0 3 -3 0 -7z m99 -185 c4 -7 4 -10
-1 -6 -4 4 -15 2 -24 -5 -14 -11 -14 -10 -2 6 16 20 18 21 27 5z m38 -124 c3
-8 2 -12 -4 -9 -6 3 -10 10 -10 16 0 14 7 11 14 -7z m126 -67 c0 -2 -10 -12
-22 -23 l-23 -19 19 23 c18 21 26 27 26 19z m20 -82 c0 -2 -6 -5 -13 -8 -8 -3
-14 1 -14 8 0 7 6 11 14 8 7 -3 13 -6 13 -8z m88 -47 c-2 -7 3 -12 10 -10 8 1
11 -2 7 -8 -5 -8 -11 -8 -21 1 -7 6 -11 15 -8 20 8 13 14 11 12 -3z m-24 -14
c3 -8 2 -12 -4 -9 -6 3 -10 10 -10 16 0 14 7 11 14 -7z m35 -57 c4 1 8 -4 8
-11 0 -7 -6 -13 -13 -13 -7 0 -12 3 -11 6 1 3 -4 17 -11 31 -13 24 -12 24 3 5
9 -11 20 -19 24 -18z m68 18 c0 -8 -4 -12 -9 -9 -5 3 -6 10 -3 15 9 13 12 11
12 -6z m-100 -47 c-3 -8 -6 -5 -6 6 -1 11 2 17 5 13 3 -3 4 -12 1 -19z m130
-13 c0 -8 -4 -12 -9 -9 -5 3 -6 10 -3 15 9 13 12 11 12 -6z m247 -53 c3 -5 -1
-9 -9 -9 -8 0 -12 4 -9 9 3 4 7 8 9 8 2 0 6 -4 9 -8z m5795 -57 c0 -5 -6 1
-14 15 -8 14 -14 30 -14 35 0 6 6 -1 14 -15 8 -14 14 -29 14 -35z m-6029 25
c-18 -12 -30 -13 -30 -2 0 4 10 9 22 9 18 2 20 0 8 -7z m240 -16 c0 -8 -19
-13 -24 -6 -3 5 1 9 9 9 8 0 15 -2 15 -3z m-35 -13 c3 -5 2 -12 -3 -15 -5 -3
-9 1 -9 9 0 17 3 19 12 6z m90 -11 c10 -11 16 -20 13 -20 -3 0 -13 9 -23 20
-10 11 -16 20 -13 20 3 0 13 -9 23 -20z m-21 -9 c14 -15 15 -21 4 -27 -7 -4
-10 -3 -5 1 4 5 0 17 -10 27 -9 10 -14 18 -11 18 3 0 13 -9 22 -19z m5685 6
c-2 -1 -13 -9 -24 -17 -19 -14 -19 -14 -6 3 7 9 18 17 24 17 6 0 8 -1 6 -3z
m-272 -32 c0 -8 -4 -12 -9 -9 -5 3 -6 10 -3 15 9 13 12 11 12 -6z m-5428 -9
c9 -11 9 -16 -1 -22 -7 -4 -10 -4 -6 1 4 4 3 14 -3 22 -6 7 -9 13 -6 13 2 0
10 -6 16 -14z m5555 5 c3 -4 -4 -17 -17 -27 -22 -19 -22 -19 -4 2 9 11 14 24
10 27 -3 4 -4 7 0 7 3 0 8 -4 11 -9z m-927 -23 c-3 -8 -6 -5 -6 6 -1 11 2 17
5 13 3 -3 4 -12 1 -19z m958 -7 c-9 -8 -36 -10 -30 -2 2 4 11 8 20 8 8 0 13
-3 10 -6z m56 -28 c13 -16 12 -17 -3 -4 -10 7 -18 15 -18 17 0 8 8 3 21 -13z
m-154 -8 c0 -6 -6 -12 -12 -12 -6 0 -12 6 -12 12 0 6 6 12 12 12 6 0 12 -6 12
-12z m31 3 c-4 -18 45 -16 60 2 11 13 12 12 3 -6 -6 -13 -19 -20 -33 -20 -29
2 -50 15 -43 27 9 13 15 11 13 -3z m-101 -13 c0 -8 -4 -12 -9 -9 -5 3 -6 10
-3 15 9 13 12 11 12 -6z m-17 -19 c0 -2 -8 -10 -17 -17 -16 -13 -17 -12 -4 4
13 16 21 21 21 13z m108 -21 c-3 -3 -9 2 -12 12 -6 14 -5 15 5 6 7 -7 10 -15
7 -18z m-154 -3 c3 -5 -1 -9 -9 -9 -8 0 -12 4 -9 9 3 4 7 8 9 8 2 0 6 -4 9 -8z
m-157 -17 c0 -8 -4 -12 -9 -9 -5 3 -6 10 -3 15 9 13 12 11 12 -6z m114 1 c-12
-14 -35 -16 -47 -3 -4 3 3 5 14 2 12 -2 24 0 27 6 4 5 9 9 12 9 3 0 0 -6 -6
-14z m67 -41 c-3 -3 -9 2 -12 12 -6 14 -5 15 5 6 7 -7 10 -15 7 -18z m-531 -9
c0 -8 -3 -14 -6 -13 -3 1 -7 -2 -7 -8 -1 -5 3 -8 10 -7 6 2 7 0 3 -4 -4 -5
-19 -9 -33 -10 l-25 -1 27 29 c32 33 31 32 31 14z m986 -8 c2 -7 0 -21 -4 -30
-10 -18 -1 -51 11 -43 10 6 36 -27 36 -45 -1 -8 -8 -15 -16 -15 -8 0 -15 -7
-15 -15 0 -8 -4 -21 -9 -28 -6 -11 -12 -10 -27 4 -13 12 -17 27 -15 53 3 20 2
30 -1 22 -5 -11 -7 -11 -15 0 -6 10 -7 6 -3 -11 5 -20 4 -22 -5 -10 -10 13
-11 13 -9 0 4 -37 -2 -71 -11 -65 -6 4 -7 -1 -3 -12 5 -14 3 -15 -7 -6 -7 7
-9 17 -4 25 5 7 10 20 11 28 4 19 11 72 13 85 0 6 5 3 10 -7 15 -25 45 -16 45
15 1 14 4 29 8 33 4 4 2 13 -4 21 -8 8 -8 13 -1 13 6 0 12 -6 15 -12z m-956
-80 c-3 -8 -6 -5 -6 6 -1 11 2 17 5 13 3 -3 4 -12 1 -19z m739 -36 c-5 -38 -5
-39 -17 -22 -9 13 -10 12 -5 -3 4 -12 2 -16 -6 -11 -7 4 -8 3 -4 -4 13 -22 -6
-37 -21 -17 -13 18 -13 18 -14 -1 -1 -10 -1 -23 0 -27 1 -5 -3 -6 -8 -3 -5 4
-8 15 -6 26 2 12 0 18 -6 15 -5 -4 -9 -13 -9 -21 0 -8 -6 -14 -12 -14 -8 0 -9
-3 -3 -8 10 -7 17 -42 9 -42 -3 0 -9 10 -14 23 -6 16 -9 17 -9 5 -1 -9 -6 -20
-13 -24 -8 -5 -9 -2 -5 10 4 10 3 15 -3 11 -6 -4 -10 -12 -9 -18 1 -7 1 -19 0
-27 -1 -13 -2 -13 -11 0 -9 13 -10 13 -10 0 0 -13 -1 -13 -11 0 -9 13 -10 13
-8 0 4 -35 -4 -42 -11 -10 -7 31 -7 29 -8 -20 -1 -45 -6 -99 -11 -119 -1 -2
-7 2 -14 8 -8 6 -17 8 -20 4 -12 -12 -18 24 -8 50 7 19 6 28 -4 37 -15 13 -20
7 -31 -40 -4 -19 -9 -38 -10 -42 -1 -5 -2 -14 -3 -21 0 -7 -7 -21 -14 -32 -13
-17 -15 -16 -30 15 -21 41 -21 51 0 25 12 -16 14 -16 10 -3 -3 10 -2 20 3 23
6 4 10 -4 10 -16 0 -30 8 -21 14 16 2 17 5 30 6 30 2 0 4 10 5 22 1 12 -1 20
-6 17 -4 -2 -6 -12 -3 -22 5 -15 4 -15 -9 1 -14 16 -15 16 -21 1 -4 -9 -9 -14
-13 -11 -3 4 0 15 8 24 13 16 12 17 -3 4 -16 -12 -18 -11 -18 3 0 10 4 14 10
11 6 -4 7 1 3 12 -6 15 -8 13 -18 -10 -9 -21 -14 -24 -23 -15 -7 7 -12 8 -12
3 0 -6 -5 -3 -10 5 -7 11 -10 11 -10 2 0 -7 -4 -10 -10 -7 -5 3 -10 10 -10 15
0 9 32 6 50 -5 6 -4 17 9 25 27 12 28 20 31 16 6 0 -5 4 -8 10 -8 5 0 8 -4 5
-9 -3 -5 1 -14 9 -21 12 -10 16 -9 21 4 3 9 4 27 2 40 -3 16 0 23 9 22 7 -1
13 -4 12 -7 -4 -8 23 -51 28 -45 4 3 11 -4 17 -15 12 -24 33 -23 28 1 -5 32
-5 46 3 74 6 24 5 28 -7 24 -8 -4 -15 -1 -15 7 0 7 8 10 19 7 16 -4 22 -14 20
-34 -1 -3 5 -9 13 -12 14 -5 42 30 37 47 -1 5 2 6 8 2 20 -13 32 6 17 29 -12
18 -12 25 -2 40 14 19 31 5 20 -16 -4 -7 0 -5 8 5 12 15 16 15 20 3 8 -21 35
-14 55 15 9 13 16 25 14 27 -7 7 -1 22 7 17 6 -3 8 -18 7 -33z m77 -35 c7 1
20 -15 30 -36 19 -42 21 -55 8 -46 -5 3 -12 1 -16 -5 -9 -14 -25 -3 -25 17 0
13 3 13 15 3 8 -7 15 -10 15 -6 0 17 -3 21 -12 18 -6 -2 -8 3 -5 11 3 8 1 20
-4 28 -8 12 -10 12 -8 -1 3 -33 -4 -43 -11 -15 l-8 30 -1 -28 c-1 -16 -5 -26
-11 -22 -6 4 -8 11 -5 16 4 5 1 9 -4 9 -6 0 -11 5 -11 11 0 5 4 8 9 4 5 -3 13
0 17 6 5 8 3 9 -6 4 -8 -5 -11 -4 -7 1 3 6 1 16 -5 24 -8 13 -9 12 -5 -1 3 -9
1 -21 -5 -27 -6 -6 -12 -22 -13 -35 -2 -14 -6 -36 -9 -49 -3 -12 -3 -17 0 -10
3 6 10 10 15 6 11 -6 12 -24 2 -23 -5 1 -11 0 -15 -1 -5 -1 -13 -3 -20 -4 -7
0 -15 -12 -19 -26 -4 -14 -7 -19 -8 -12 -1 6 0 13 0 15 1 1 -6 19 -14 39 -10
23 -12 40 -6 43 5 4 7 11 4 16 -4 5 -2 9 4 9 15 0 23 -18 10 -22 -8 -3 -8 -13
0 -38 l11 -35 -5 33 c-3 20 -1 31 5 27 6 -3 10 -12 10 -20 0 -8 3 -16 8 -18 4
-3 8 16 8 42 1 25 -1 34 -3 18 -2 -15 -8 -25 -13 -22 -11 7 5 53 26 76 8 9 14
20 13 25 -6 32 4 33 27 3 14 -19 30 -33 37 -32z m92 -26 c0 -27 -2 -47 -4 -45
-2 2 -10 -1 -18 -7 -16 -14 -16 -6 -2 40 7 20 13 42 15 49 6 23 9 12 9 -37z
m-115 -36 c5 3 8 -8 7 -24 -4 -50 -45 -21 -45 32 0 27 1 27 15 7 8 -11 18 -18
23 -15z m-138 -2 c1 -4 7 -21 14 -38 10 -25 10 -33 -2 -46 -8 -8 -15 -27 -16
-42 -1 -14 -6 -23 -10 -21 -5 3 -11 -2 -14 -10 -8 -20 -23 -11 -35 21 -8 21
-12 23 -24 13 -12 -10 -16 -9 -21 3 -6 17 14 62 23 53 3 -3 0 -12 -6 -20 -8
-9 -8 -16 -2 -20 5 -4 13 -1 17 6 8 12 29 -28 25 -47 -1 -5 7 -1 18 9 11 10
18 26 16 37 -2 12 0 17 7 13 6 -4 6 1 -1 14 -7 13 -7 23 -2 27 6 3 8 19 6 36
-2 17 -1 29 1 26 3 -3 6 -9 6 -14z m-26 -77 c-2 -56 -12 -67 -26 -31 -9 24
-12 26 -28 14 -15 -12 -16 -12 -6 1 5 8 18 28 28 43 23 37 34 27 32 -27z
m-403 -19 c4 3 7 1 7 -5 0 -16 -20 -26 -20 -10 0 8 -5 6 -11 -5 -6 -9 -14 -15
-18 -12 -15 9 -33 -23 -28 -52 4 -27 4 -27 6 4 2 46 16 49 16 3 0 -21 -3 -36
-6 -34 -4 2 -5 -6 -1 -18 3 -14 2 -19 -7 -14 -6 4 -9 11 -6 16 3 4 -2 13 -9
19 -11 10 -17 8 -25 -6 -6 -10 -11 -14 -11 -9 0 5 -6 3 -14 -3 -20 -17 -45 14
-26 32 10 10 12 9 7 -4 -3 -9 0 -16 8 -16 8 0 11 7 7 16 -5 13 -3 14 10 3 19
-15 33 -2 43 46 3 18 11 30 15 27 5 -3 14 4 20 15 8 16 15 19 24 11 7 -6 16
-8 19 -4z m37 -20 c0 -5 -4 -6 -9 -3 -4 3 -8 -2 -8 -12 1 -32 -15 -92 -23 -87
-5 3 -4 19 2 35 5 16 8 35 5 42 -3 7 -6 3 -6 -10 -1 -13 -5 -21 -11 -17 -5 3
-6 13 -3 23 3 9 3 14 -1 11 -4 -4 -9 -19 -12 -35 -3 -22 -2 -25 6 -14 8 13 10
13 10 -1 0 -9 -3 -19 -7 -23 -9 -9 -13 -36 -5 -35 20 3 23 -3 11 -18 -7 -10 1
-5 19 11 18 17 32 25 32 19 0 -5 -9 -18 -20 -28 -14 -13 -17 -22 -10 -30 7 -9
6 -16 -4 -24 -10 -9 -16 -9 -21 -1 -4 6 -4 14 -1 17 3 3 1 12 -5 20 -6 7 -8
13 -4 13 4 0 3 6 -2 13 -13 16 -14 87 -2 109 5 10 15 17 21 15 7 -1 17 8 22
20 7 15 13 18 18 10 4 -7 8 -16 8 -20z m33 -19 c4 -10 2 -18 -3 -18 -6 0 -10
8 -10 17 0 21 -9 13 -13 -13 -1 -10 -6 -25 -10 -31 -5 -7 -6 -17 -3 -22 3 -4
-3 -16 -13 -25 -17 -15 -19 -15 -32 1 -13 16 -12 17 3 5 9 -7 18 -9 21 -5 4 7
19 65 22 83 0 3 4 10 8 17 4 6 4 19 1 30 -6 16 -5 15 8 -2 8 -11 18 -28 21
-37z m458 43 c6 10 8 6 7 -13 -2 -21 -5 -24 -15 -16 -7 6 -13 18 -12 27 0 12
2 12 6 2 5 -11 7 -11 14 0z m-410 -42 c7 -12 9 -12 9 1 1 12 3 11 11 -3 8 -14
14 -16 25 -6 8 6 14 10 15 8 6 -31 7 -40 2 -35 -4 3 -12 1 -20 -5 -10 -9 -13
-7 -14 7 0 16 -2 15 -10 -5 -19 -47 -50 -82 -63 -72 -7 6 -16 8 -19 4 -4 -3
-7 -2 -8 3 0 5 -2 19 -5 31 -2 12 1 25 6 28 6 4 7 12 3 18 -4 7 0 6 10 -2 9
-7 17 -23 17 -35 0 -17 -2 -18 -9 -6 -6 8 -7 19 -4 25 4 5 2 7 -2 2 -5 -4 -9
-16 -10 -26 -2 -27 29 -20 33 8 2 12 7 19 12 16 5 -3 6 -13 3 -23 -5 -14 -3
-13 9 2 9 11 15 25 13 30 -6 28 -18 45 -27 40 -7 -4 -6 -9 1 -14 9 -5 8 -10
-2 -18 -11 -10 -14 -7 -15 17 -1 31 22 37 39 10z m-251 -12 c0 -7 -4 -6 -10 3
-5 8 -10 11 -10 5 0 -5 4 -16 8 -23 6 -9 12 -5 21 15 13 28 13 28 23 6 13 -27
3 -57 -14 -46 -23 14 -38 11 -52 -9 -14 -20 -14 -20 -26 1 -6 12 -14 19 -18
17 -5 -3 -9 5 -9 17 -2 21 -1 22 13 3 8 -11 14 -14 14 -7 0 7 4 10 9 6 6 -3
15 4 21 15 11 21 30 19 30 -3z m247 -22 c0 -8 -4 -12 -9 -9 -5 3 -6 10 -3 15
9 13 12 11 12 -6z"/>
<path d="M5445 13591 c-3 -5 -2 -12 3 -15 5 -3 9 1 9 9 0 17 -3 19 -12 6z"/>
<path d="M5719 13027 c6 -8 7 -18 3 -22 -4 -5 -1 -5 6 -1 10 6 10 11 1 22 -6
8 -14 14 -16 14 -3 0 0 -6 6 -13z"/>
<path d="M6000 12461 c0 -6 4 -13 10 -16 6 -3 7 1 4 9 -7 18 -14 21 -14 7z"/>
<path d="M6016 12413 c-6 -14 -5 -15 5 -6 7 7 10 15 7 18 -3 3 -9 -2 -12 -12z"/>
<path d="M6060 12296 c0 -2 8 -10 18 -17 15 -13 16 -12 3 4 -13 16 -21 21 -21
13z"/>
<path d="M6263 11875 c0 -8 4 -12 9 -9 5 3 6 10 3 15 -9 13 -12 11 -12 -6z"/>
<path d="M2926 10007 c-12 -29 -12 -34 5 -47 12 -10 17 -23 14 -37 -3 -13 -7
-32 -9 -43 -3 -12 -1 -18 5 -15 10 7 32 -42 24 -55 -3 -5 3 -7 12 -6 10 2 18
12 18 22 0 14 7 19 27 18 15 -1 25 2 23 7 -3 4 -1 10 5 14 5 3 10 16 10 28 0
18 -2 19 -10 7 -5 -8 -10 -10 -10 -4 0 18 37 47 45 34 3 -6 3 -9 -2 -8 -12 4
-15 -13 -8 -49 4 -21 10 -30 19 -27 20 8 11 70 -15 101 -12 16 -19 20 -16 11
4 -10 2 -19 -3 -19 -6 -1 -16 -2 -22 -3 -17 -3 -39 14 -33 24 3 4 -11 24 -30
43 l-36 36 -13 -32z m70 -48 c1 -5 2 -15 3 -23 0 -9 9 -13 19 -11 15 3 18 -2
14 -21 -2 -14 0 -24 7 -24 8 0 8 -4 -1 -14 -11 -12 -15 -12 -29 0 -20 18 -35
18 -20 0 8 -9 8 -16 2 -20 -6 -4 -8 -14 -5 -24 5 -14 4 -15 -5 -2 -6 8 -11 25
-11 38 0 12 -4 21 -9 20 -5 -2 -9 2 -9 7 0 6 4 9 9 8 13 -4 11 14 -2 23 -7 4
-7 10 -1 16 11 11 4 56 -10 64 -6 4 -8 -3 -4 -17 3 -13 3 -18 0 -11 -3 6 -10
10 -15 6 -5 -3 -4 6 2 19 l11 24 26 -24 c15 -14 28 -29 28 -34z m97 -64 c4 -8
3 -16 -1 -19 -4 -3 -9 4 -9 15 -2 23 3 25 10 4z"/>
<path d="M2973 9963 c3 -13 1 -26 -4 -29 -6 -3 -6 -11 1 -19 7 -8 8 -20 4 -26
-4 -8 -3 -9 5 -5 6 4 19 2 27 -5 19 -15 22 -10 13 21 -5 19 -7 20 -8 6 -1 -20
-13 -15 -17 7 -1 7 -4 22 -6 34 -2 12 -8 26 -13 30 -4 5 -5 -2 -2 -14z"/>
<path d="M2790 9751 c0 -6 4 -13 10 -16 6 -3 7 1 4 9 -7 18 -14 21 -14 7z"/>
<path d="M2876 9808 c-6 -28 -4 -60 2 -53 5 5 11 75 6 75 -2 0 -6 -10 -8 -22z"/>
<path d="M8524 6759 c-12 -38 -12 -58 1 -69 10 -8 12 0 9 32 -3 34 -1 38 5 18
8 -21 9 -22 10 -5 0 11 -3 26 -8 34 -7 11 -11 8 -17 -10z"/>
<path d="M8557 6760 c3 -11 9 -22 13 -25 5 -3 6 4 3 15 -3 11 -9 22 -13 25 -5
3 -6 -4 -3 -15z"/>
<path d="M8196 6712 c-2 -4 1 -15 8 -24 11 -15 13 -15 26 5 12 20 12 21 -3 8
-16 -12 -21 -9 -18 12 1 9 -6 9 -13 -1z"/>
<path d="M8023 6561 c0 -11 5 -18 9 -15 4 3 5 11 1 19 -7 21 -12 19 -10 -4z"/>
<path d="M8070 6515 c2 -5 1 -12 0 -15 -1 -3 -3 -13 -5 -23 -3 -14 0 -16 9 -8
7 6 15 8 19 5 3 -3 4 1 3 10 -1 9 -8 22 -15 29 -7 6 -12 8 -11 2z"/>
<path d="M8330 6705 c-7 -9 -11 -17 -9 -20 3 -2 10 5 17 15 14 24 10 26 -8 5z"/>
<path d="M8354 6633 c2 -10 6 -17 10 -16 15 3 16 11 2 22 -12 10 -14 9 -12 -6z"/>
<path d="M8242 6580 c0 -14 2 -19 5 -12 2 6 2 18 0 25 -3 6 -5 1 -5 -13z"/>
<path d="M8191 6591 c-7 -13 -7 -23 2 -35 10 -14 12 -11 12 19 0 40 -1 41 -14
16z"/>
<path d="M7697 6485 c-4 -8 -3 -16 1 -19 4 -3 9 4 9 15 2 23 -3 25 -10 4z"/>
<path d="M7644 6475 c-4 -8 -11 -12 -17 -8 -6 3 -7 1 -3 -5 10 -16 14 -15 26
8 6 11 8 20 5 20 -3 0 -8 -7 -11 -15z"/>
<path d="M24700 12740 c-577 -47 -994 -306 -1220 -759 -66 -133 -111 -281
-147 -493 -16 -91 -18 -174 -18 -733 0 -566 2 -641 18 -735 34 -194 81 -348
147 -482 197 -399 544 -648 1030 -739 111 -21 153 -24 380 -23 235 0 266 2
391 27 570 112 939 434 1103 964 30 96 42 155 61 302 22 167 22 1219 0 1386
-94 718 -522 1157 -1235 1269 -118 18 -383 27 -510 16z m350 -535 c152 -19
320 -97 429 -200 156 -148 231 -309 272 -580 17 -116 19 -188 19 -666 0 -654
-9 -750 -91 -958 -98 -247 -281 -407 -544 -477 -100 -26 -388 -27 -494 -1
-331 80 -531 307 -613 694 -23 106 -23 120 -23 738 0 617 0 632 23 737 48 227
119 373 243 497 93 92 209 158 347 195 108 30 287 38 432 21z"/>
<path d="M28515 12740 c-224 -19 -419 -72 -591 -158 -300 -151 -509 -391 -620
-714 -80 -233 -94 -392 -94 -1113 0 -720 13 -867 96 -1107 94 -272 283 -514
509 -655 233 -144 470 -211 786 -220 650 -20 1105 199 1324 637 62 124 116
299 130 420 3 30 8 72 11 93 l6 37 -331 0 -331 0 0 -29 c0 -80 -33 -210 -75
-296 -76 -157 -204 -255 -400 -306 -120 -32 -368 -32 -479 0 -317 89 -495 326
-535 711 -12 113 -12 1308 0 1435 29 309 157 529 379 653 30 17 96 43 145 58
81 24 106 27 250 27 134 1 173 -3 242 -21 266 -71 406 -228 449 -504 9 -57 18
-109 20 -115 3 -10 76 -13 324 -13 l320 0 0 53 c0 201 -97 488 -219 648 -236
310 -588 467 -1076 483 -82 2 -190 1 -240 -4z"/>
<path d="M13595 12583 c-14 -49 -30 -99 -35 -113 -5 -14 -32 -101 -60 -195
-28 -93 -62 -204 -75 -245 -13 -41 -44 -145 -70 -230 -26 -85 -57 -189 -70
-230 -13 -41 -37 -120 -54 -175 -16 -55 -57 -188 -90 -295 -32 -107 -66 -217
-74 -245 -13 -45 -104 -342 -204 -665 -19 -63 -43 -142 -53 -175 -10 -33 -30
-98 -45 -145 -15 -47 -30 -98 -35 -115 -7 -29 -252 -831 -270 -887 l-9 -28
347 0 347 0 52 183 c185 645 234 812 241 819 4 4 304 7 667 6 l658 -3 79 -250
c44 -137 97 -304 118 -370 21 -66 57 -180 80 -252 l41 -133 356 0 c280 0 354
3 351 13 -3 6 -12 35 -21 62 -8 28 -42 133 -75 235 -70 217 -182 565 -293 915
-44 138 -86 268 -94 290 -7 22 -29 90 -48 150 -57 179 -207 645 -227 705 -10
30 -51 156 -90 280 -39 124 -114 356 -165 515 -51 160 -120 373 -152 475 l-59
185 -472 3 -471 2 -26 -87z m515 -460 c9 -39 239 -851 440 -1557 22 -76 40
-145 40 -152 0 -12 -84 -14 -500 -14 -275 0 -500 2 -500 4 0 4 221 800 304
1096 24 85 65 232 91 325 25 94 53 190 60 215 8 25 19 64 25 88 6 23 15 42 19
42 5 0 14 -21 21 -47z"/>
<path d="M16310 11348 c0 -804 4 -1368 10 -1437 18 -204 66 -380 144 -533 62
-122 123 -203 224 -300 146 -138 310 -222 537 -276 102 -25 126 -27 340 -26
204 0 241 2 325 22 254 61 451 160 630 316 41 36 78 66 81 66 8 0 15 -46 29
-185 6 -60 13 -120 16 -132 l4 -23 305 0 305 0 0 1915 0 1915 -345 0 -345 0 0
-1475 0 -1476 -107 -108 c-150 -149 -296 -236 -488 -287 -98 -26 -410 -27
-501 -2 -149 41 -285 137 -360 253 -43 67 -90 204 -103 300 -7 51 -11 525 -11
1436 l0 1359 -345 0 -345 0 0 -1322z"/>
<path d="M19970 12410 l0 -260 524 0 c288 0 531 -3 540 -6 15 -6 16 -161 16
-1655 l0 -1649 343 0 342 0 -3 1641 c-1 1210 1 1645 9 1655 9 12 106 14 540
14 l529 0 0 260 0 260 -1420 0 -1420 0 0 -260z"/>
<path d="M31655 12658 c-6 -21 -80 -264 -125 -413 -23 -77 -65 -212 -92 -300
-28 -88 -56 -180 -63 -205 -14 -51 -63 -212 -105 -345 -15 -49 -47 -153 -70
-230 -23 -77 -80 -261 -125 -410 -145 -473 -231 -754 -300 -980 -37 -121 -87
-285 -111 -365 -25 -80 -56 -183 -70 -230 -14 -47 -41 -132 -59 -190 -18 -58
-36 -115 -40 -128 l-6 -22 348 2 348 3 87 305 c49 168 111 386 139 485 28 99
56 188 61 198 8 16 48 17 670 15 l661 -3 58 -185 c124 -401 231 -737 246 -777
l16 -43 353 0 c195 0 354 2 354 5 0 2 -6 22 -14 42 -8 21 -42 126 -76 233 -34
107 -86 269 -115 360 -137 424 -237 734 -269 835 -19 61 -114 358 -211 660
-97 303 -198 618 -225 700 -142 447 -284 887 -302 938 l-21 57 -469 0 c-366 0
-470 -3 -473 -12z m499 -560 c10 -40 29 -107 41 -148 45 -147 435 -1526 435
-1538 0 -9 -119 -12 -500 -12 -275 0 -500 3 -500 6 0 3 57 209 126 457 69 249
177 639 240 867 63 228 117 421 119 428 9 27 21 9 39 -60z"/>
<path d="M34540 10755 l0 -1916 703 3 702 4 143 27 c635 120 1033 459 1197
1022 63 218 67 263 72 832 5 574 -2 696 -52 895 -38 147 -61 210 -122 329
-185 366 -518 601 -979 691 -104 21 -143 22 -887 25 l-777 4 0 -1916z m1422
1375 c81 -12 216 -53 283 -87 147 -76 290 -245 351 -415 70 -197 76 -282 71
-903 -3 -495 -5 -536 -25 -620 -90 -387 -270 -592 -602 -688 -123 -36 -280
-48 -560 -45 l-245 3 -3 1382 -2 1382 37 3 c88 7 624 -2 695 -12z"/>
<path d="M1899 7753 c-3 -21 -5 -26 -22 -67 -10 -22 -15 -41 -12 -44 3 -3 -1
-12 -8 -20 -10 -13 -9 -14 2 -8 10 6 12 4 7 -10 -3 -11 -1 -26 5 -34 9 -12 10
-11 6 8 -3 12 -2 20 2 18 4 -3 6 14 6 37 -2 50 4 77 17 77 5 0 4 -8 -2 -19
-13 -26 -13 -34 2 -25 6 4 8 3 4 -4 -3 -6 -1 -14 5 -18 9 -5 10 -1 7 14 -5 18
17 53 29 45 11 -9 13 -1 3 12 -7 8 -16 12 -21 9 -5 -3 -13 5 -18 18 -6 13 -11
17 -12 11z m41 -38 c0 -2 -6 -8 -13 -14 -10 -8 -14 -7 -14 2 0 8 6 14 14 14 7
0 13 -1 13 -2z"/>
<path d="M1926 7645 c-9 -25 -7 -29 7 -16 10 8 14 7 14 -4 0 -8 -4 -12 -8 -9
-5 2 -2 -8 6 -23 9 -17 11 -31 5 -37 -6 -6 -5 -15 2 -24 7 -7 11 -35 10 -60
-2 -30 0 -42 6 -34 5 8 8 24 6 38 -1 13 2 22 6 19 5 -3 8 -11 6 -18 -1 -7 -1
-8 2 -3 3 5 11 -2 19 -15 l14 -24 -5 24 c-3 16 -2 21 5 14 6 -6 11 -19 12 -31
0 -11 5 -18 9 -16 4 3 6 -1 3 -8 -3 -7 5 -24 16 -38 l20 -25 -6 25 c-5 22 -4
23 5 7 7 -10 9 -21 6 -24 -3 -3 0 -15 7 -27 6 -11 12 -30 13 -41 1 -11 2 -29
3 -39 0 -11 4 -16 8 -12 10 10 4 79 -8 91 -5 5 -8 20 -8 35 1 23 2 23 8 -5 6
-27 10 -30 43 -29 21 0 34 -4 31 -9 -3 -6 -1 -7 5 -3 6 3 14 1 18 -5 4 -7 3
-9 -4 -5 -6 3 -13 2 -16 -3 -8 -13 20 -21 31 -10 6 6 10 4 10 -5 0 -8 -4 -13
-8 -10 -4 2 -7 -8 -5 -23 1 -16 -1 -33 -6 -39 -5 -7 0 -18 12 -29 18 -16 30
-8 13 9 -12 12 -11 51 3 73 12 19 10 23 -24 50 -20 15 -45 29 -54 29 -33 3
-36 4 -41 25 -3 12 -10 18 -15 15 -10 -6 -43 27 -61 62 -10 18 -10 27 1 40 12
15 10 15 -14 -1 -26 -16 -28 -16 -42 5 -8 12 -13 25 -10 30 3 4 0 8 -5 8 -6 0
-11 5 -11 11 0 5 5 7 12 3 7 -4 8 -3 4 4 -4 6 -2 22 4 34 11 22 10 22 -4 4
-16 -19 -17 -18 -20 24 -2 28 -22 46 -30 25z"/>
<path d="M1895 7613 c2 -16 -1 -36 -7 -46 -6 -12 -6 -23 1 -31 6 -8 8 -22 4
-31 -4 -13 -3 -16 5 -11 16 9 15 39 0 55 -11 11 -9 11 8 1 15 -9 20 -20 16
-34 -5 -19 -4 -20 14 -6 18 14 18 14 2 -6 -14 -16 -15 -23 -6 -32 10 -10 10
-17 0 -32 -17 -28 -15 -35 5 -19 11 10 14 10 9 2 -4 -7 -2 -13 4 -13 9 0 7 24
-5 66 -2 6 1 17 5 25 6 8 3 20 -6 30 -10 11 -12 19 -5 23 11 7 5 28 -19 64
-20 30 -29 28 -25 -5z m30 -21 c-3 -3 0 -11 6 -18 6 -7 6 -14 1 -18 -6 -3 -15
1 -21 8 -9 10 -9 16 -1 21 8 5 7 12 -2 23 -12 15 -11 16 5 3 9 -8 15 -16 12
-19z"/>
<path d="M1834 7579 c-4 -13 -9 -26 -9 -29 -1 -3 -9 -22 -18 -44 -9 -21 -15
-42 -12 -46 3 -5 1 -11 -5 -15 -6 -4 -8 -10 -5 -15 3 -5 1 -11 -5 -15 -6 -4
-7 -13 -1 -23 4 -9 6 -24 4 -32 -4 -12 -3 -12 5 -1 16 23 22 -4 6 -33 -15 -31
-19 -49 -5 -27 14 21 43 23 37 3 -3 -9 1 -30 8 -47 13 -30 13 -29 10 18 -1 30
1 45 8 41 5 -4 8 -17 5 -30 -2 -13 -1 -21 3 -19 5 3 7 -10 6 -28 -1 -17 -7
-32 -12 -32 -5 0 -8 4 -6 9 2 5 -3 4 -11 -2 -8 -7 -18 -8 -23 -4 -5 4 -6 3 -2
-2 4 -5 3 -15 -3 -23 -15 -18 -40 2 -32 25 4 14 3 15 -6 2 -7 -10 -6 -19 5
-31 8 -8 11 -20 7 -25 -5 -5 1 -1 13 9 11 9 24 14 28 10 4 -5 6 -3 4 2 -1 6 2
10 7 10 6 0 9 -4 7 -9 -2 -5 4 -3 13 4 21 17 47 22 43 8 -2 -5 -6 -8 -10 -6
-3 2 -15 -5 -25 -15 -11 -9 -23 -14 -28 -10 -4 5 -5 2 -1 -5 4 -7 13 -9 19 -5
22 14 58 11 53 -4 -4 -8 -1 -11 5 -8 6 4 8 13 5 21 -3 7 -1 16 4 19 11 7 13
-19 3 -53 -4 -18 -8 -20 -14 -10 -5 7 -9 8 -9 2 0 -6 10 -19 22 -30 12 -10 18
-14 15 -7 -4 6 -3 14 3 18 11 7 14 -28 3 -38 -3 -4 -13 -1 -22 6 -14 11 -14
10 -3 -5 8 -10 18 -16 22 -15 4 1 8 -2 9 -8 1 -5 -4 -10 -10 -10 -17 0 -29
-39 -18 -56 8 -12 10 -12 8 1 -3 31 1 51 10 46 5 -3 14 1 21 9 7 8 17 12 23 8
5 -3 7 -1 3 5 -3 6 -1 14 5 18 8 5 10 -1 7 -19 -3 -14 -1 -25 5 -24 5 1 12 -4
15 -12 3 -9 0 -11 -9 -6 -8 5 -6 -1 4 -12 15 -17 15 -22 4 -31 -8 -7 -18 -8
-23 -4 -4 4 -3 0 3 -8 6 -8 11 -19 11 -23 0 -5 2 -11 5 -13 2 -3 4 3 3 13 0
10 4 18 9 18 6 0 9 -3 7 -8 -1 -4 4 -6 10 -5 8 2 12 -6 12 -20 -1 -21 0 -22
16 -7 17 15 19 15 30 -4 6 -12 7 -21 3 -21 -4 0 -2 -5 4 -11 9 -9 8 -18 -4
-38 l-15 -26 20 25 c11 13 19 27 16 31 -2 4 2 12 10 18 10 9 15 8 19 -3 3 -8
3 -17 -1 -19 -4 -2 -1 -2 6 -1 15 4 15 -1 1 -29 -9 -18 -9 -20 1 -10 7 7 14
23 15 35 1 13 6 22 11 21 11 -4 13 -24 3 -38 -9 -14 -7 -45 2 -39 5 2 5 12 2
22 -6 15 -5 15 10 3 12 -9 14 -17 7 -26 -7 -8 -5 -12 5 -12 7 0 14 3 13 6 0 3
1 9 2 14 1 4 3 12 4 17 1 13 21 13 21 1 0 -5 3 -13 7 -16 4 -4 3 -17 -3 -29
-9 -19 -9 -19 4 -4 8 10 18 14 23 10 4 -4 4 0 -2 8 -11 16 -11 22 1 57 4 13
11 20 16 17 5 -3 5 -13 -1 -24 -5 -10 -10 -25 -10 -32 1 -7 7 1 15 17 l15 30
-5 -35 c-4 -27 -3 -30 4 -15 5 11 10 17 12 13 5 -22 7 -29 8 -40 1 -9 4 -9 10
2 6 8 8 17 5 21 -2 4 0 10 5 13 9 6 24 -40 25 -76 1 -9 5 -20 9 -25 5 -4 7 -3
5 2 -2 6 2 10 7 10 5 0 9 -3 8 -7 -2 -5 2 -7 9 -5 9 1 16 -35 8 -45 -7 -10 -7
-39 0 -43 5 -3 7 4 5 15 -2 13 2 23 11 27 12 4 13 8 4 13 -7 4 -9 13 -5 20 6
9 10 8 17 -4 8 -14 13 -15 24 -5 8 6 14 8 14 4 0 -5 8 -1 18 8 10 10 21 14 25
11 8 -9 -4 -35 -14 -29 -9 6 -34 -34 -26 -42 3 -2 8 5 12 17 5 15 10 18 19 11
9 -8 13 -7 14 2 2 30 9 48 18 47 5 0 9 -4 9 -9 0 -5 3 -12 8 -15 4 -3 5 -3 2
0 -2 4 8 23 24 43 34 43 39 65 22 106 -7 17 -14 47 -15 67 -1 20 -9 45 -16 55
-12 15 -12 16 0 6 20 -18 30 -16 23 5 -4 11 1 8 15 -8 12 -14 21 -21 22 -16 0
5 6 3 14 -3 11 -9 15 -7 19 9 4 16 3 19 -7 11 -10 -8 -20 -6 -38 9 -14 10 -28
16 -32 13 -12 -13 -36 -11 -36 2 0 7 -6 16 -12 18 -9 4 -9 6 2 6 10 1 7 6 -8
17 -17 12 -20 19 -12 29 7 9 6 16 -5 25 -8 7 -15 24 -15 39 0 18 -3 22 -9 12
-11 -17 -2 -51 13 -51 7 0 7 -3 -1 -8 -10 -6 -9 -14 3 -36 8 -16 12 -31 9 -34
-3 -3 -5 0 -5 6 0 7 -3 12 -7 12 -5 0 -8 -13 -8 -30 0 -31 14 -43 16 -12 0 14
2 14 9 -3 l9 -20 1 20 c1 15 3 16 7 5 3 -8 12 -22 20 -32 8 -9 15 -34 16 -57
1 -23 5 -41 9 -41 5 0 8 -7 8 -15 0 -8 -5 -15 -11 -15 -5 0 -7 5 -4 10 3 6 1
10 -5 10 -7 0 -9 7 -6 16 4 10 2 13 -6 8 -6 -4 -8 -3 -5 3 3 5 0 10 -8 10 -8
0 -15 -4 -15 -9 0 -4 4 -8 10 -8 5 0 6 -7 3 -17 -4 -11 -3 -14 5 -9 7 4 12 3
12 -3 0 -28 -21 -16 -31 18 -7 22 -16 38 -20 35 -5 -3 -2 -18 6 -34 9 -18 11
-31 5 -35 -6 -3 -10 -3 -11 2 -1 15 -7 38 -14 56 -4 9 -3 17 2 17 5 0 10 6 10
13 0 6 2 18 4 26 2 7 -1 15 -8 18 -7 3 -10 -4 -7 -19 4 -21 4 -21 -5 -3 -9 19
-10 18 -11 -5 -2 -14 -2 -31 -1 -39 2 -7 -3 -10 -9 -6 -6 4 -8 20 -4 40 3 19
1 35 -5 39 -7 5 -10 -1 -7 -16 2 -13 -5 -40 -16 -60 -18 -37 -33 -53 -22 -24
3 7 -2 16 -10 19 -9 4 -16 16 -16 27 0 12 -4 19 -10 15 -5 -3 -7 -13 -4 -23 5
-13 4 -14 -4 -3 -8 11 -10 11 -15 0 -4 -10 -6 -9 -6 4 -1 9 4 17 10 17 5 0 7
5 3 11 -4 8 -9 7 -16 -2 -6 -10 -7 -6 -3 11 5 20 4 22 -5 10 -9 -12 -10 -10
-4 10 6 21 5 23 -8 12 -12 -10 -17 -7 -27 14 -6 15 -14 24 -18 21 -3 -4 0 -13
6 -21 7 -8 8 -17 3 -20 -6 -3 -12 4 -16 17 -9 34 -7 40 8 34 10 -4 13 -1 10 8
-11 27 -35 4 -31 -30 3 -22 0 -32 -9 -32 -8 0 -14 4 -14 9 0 4 4 8 10 8 5 0 6
8 3 17 -6 15 -7 15 -15 -3 -7 -17 -8 -16 -4 3 2 13 0 26 -5 29 -5 3 -9 -7 -9
-21 0 -14 -4 -24 -9 -21 -5 3 -7 15 -4 26 4 13 0 20 -9 20 -11 0 -14 13 -12
58 3 54 1 50 -12 -27 -4 -26 -8 -31 -15 -20 -7 12 -9 12 -9 0 0 -11 -4 -9 -15
5 -11 14 -14 15 -9 3 3 -10 2 -19 -3 -22 -4 -3 -9 6 -9 19 -2 22 6 29 29 25 4
0 7 9 7 21 0 16 -3 19 -8 10 -5 -7 -18 -14 -30 -17 -21 -4 -22 2 -7 58 3 12
-3 7 -13 -12 -12 -21 -22 -30 -26 -22 -4 6 -2 11 4 11 6 0 8 5 4 11 -5 8 -9 8
-14 -1 -5 -9 -9 -9 -14 -1 -4 6 -2 11 4 11 6 0 8 5 4 11 -4 8 -9 7 -15 -2 -7
-11 -9 -11 -9 1 0 13 -1 13 -11 0 -8 -12 -9 -9 -4 10 4 17 3 21 -3 11 -6 -8
-12 -9 -16 -3 -3 6 -1 12 5 14 8 3 9 15 4 36 -8 40 -24 33 -21 -9 1 -16 -2
-33 -7 -36 -6 -4 -7 -1 -2 7 5 8 4 11 -2 7 -7 -5 -8 4 -3 28 4 19 6 35 4 35
-3 0 0 9 6 20 8 15 8 25 0 38 -10 14 -11 15 -6 0 2 -9 2 -19 -2 -23 -4 -4 -7
-12 -7 -17 0 -6 -5 -13 -11 -15 -15 -5 -56 64 -43 72 5 4 9 16 9 28 -1 19 -3
18 -14 -8 -8 -19 -15 -25 -20 -17 -4 7 -3 12 2 12 9 0 25 37 23 53 -1 4 4 7
10 7 6 0 8 -8 5 -17 -5 -16 -4 -15 9 1 8 10 12 23 8 29 -3 6 -1 7 5 3 6 -4 8
-14 5 -23 -4 -11 -3 -14 6 -9 7 4 10 20 8 34 -2 15 -2 21 0 14 3 -7 9 -10 14
-7 12 8 11 -6 0 -25 -6 -8 -7 -19 -3 -24 3 -6 9 0 13 14 7 25 7 25 8 2 1 -13
5 -21 9 -18 5 3 6 -9 4 -26 -3 -20 -1 -29 6 -24 6 3 9 15 7 26 -2 12 0 18 6
15 5 -4 7 -11 4 -16 -4 -5 -1 -9 5 -9 7 0 9 -7 6 -16 -3 -8 -2 -13 2 -10 4 2
7 -15 8 -37 0 -23 5 -41 11 -40 6 1 9 -14 7 -39 -2 -23 0 -38 4 -34 12 12 10
68 -4 94 -7 13 -11 33 -9 44 3 12 -12 43 -35 76 -22 30 -37 59 -33 65 3 6 1 7
-5 3 -6 -3 -15 1 -20 11 -8 14 -12 12 -26 -15 -11 -22 -23 -31 -36 -29 -28 4
-35 14 -20 32 7 9 9 22 5 32 -5 10 -7 22 -6 27 1 5 -4 4 -13 -3 -15 -13 -32 1
-22 18 3 5 -5 28 -18 51 -23 41 -24 41 -32 19z m41 -51 c6 -5 6 -11 -3 -20
-14 -14 -16 -32 -3 -23 5 3 12 1 16 -5 4 -6 10 -8 15 -5 13 8 21 -26 9 -41
-18 -22 -32 -16 -25 10 4 15 1 28 -6 32 -8 5 -9 2 -5 -10 4 -10 3 -15 -3 -11
-6 4 -8 -6 -6 -24 2 -17 -1 -28 -5 -25 -5 3 -9 18 -9 34 0 16 -4 31 -9 35 -6
3 -7 -10 -4 -32 7 -43 -3 -42 -11 1 -8 43 -17 45 -10 2 3 -22 2 -36 -4 -33 -5
4 -8 -4 -7 -16 2 -12 8 -21 15 -19 8 2 11 -4 7 -18 -6 -23 8 -36 19 -18 5 8
10 6 16 -8 6 -13 7 -10 2 11 -4 23 -3 27 7 18 6 -6 12 -42 13 -81 1 -46 5 -69
13 -69 7 0 10 4 7 9 -10 15 -14 72 -5 62 5 -5 12 -30 15 -55 6 -37 3 -49 -11
-60 -16 -13 -17 -12 -4 4 14 18 9 32 -12 32 -7 0 -12 20 -13 48 -2 54 -17 77
-45 72 -15 -3 -19 1 -17 13 1 9 -5 28 -14 41 -13 18 -15 28 -6 38 6 7 7 13 3
13 -4 0 -2 6 4 13 6 8 9 16 6 19 -3 3 2 22 12 44 17 41 19 46 22 67 1 6 8 1
14 -13 6 -14 16 -28 22 -32z m41 -129 c6 -5 13 -6 17 -3 12 12 1 -24 -15 -48
-16 -24 -16 -27 2 -43 11 -10 16 -24 13 -33 -5 -11 -3 -13 8 -7 12 8 12 6 0
-8 -11 -14 -11 -23 2 -60 9 -26 11 -50 7 -58 -11 -16 -2 -32 12 -23 6 4 8 2 4
-4 -3 -6 -2 -13 3 -17 6 -3 8 -13 5 -23 -5 -14 -3 -14 6 2 10 15 14 16 21 5 7
-11 9 -11 9 -1 0 7 5 10 10 7 6 -3 8 -21 6 -38 -3 -18 -3 -26 0 -19 8 17 34
-4 34 -26 0 -13 -3 -12 -16 4 -8 10 -13 13 -9 7 3 -7 8 -23 10 -34 5 -25 15
-38 15 -20 0 7 5 9 10 6 8 -5 7 -12 -2 -23 -8 -10 -9 -13 -1 -9 19 12 24 -10
6 -24 -9 -8 -14 -9 -10 -3 4 6 -2 19 -13 29 -11 10 -17 21 -15 26 3 4 1 10 -5
14 -6 4 -8 10 -5 15 3 5 1 17 -4 27 -5 10 -12 26 -15 37 -6 17 -8 18 -25 2
-19 -18 -33 -12 -24 10 3 8 2 21 -1 30 -5 13 -9 14 -21 4 -14 -11 -14 -9 -5
16 12 31 -4 147 -24 173 -6 7 -12 25 -14 39 -2 15 -7 31 -12 37 -5 6 -8 20 -7
32 1 21 17 21 43 2z m-58 -10 c1 -8 -4 -23 -11 -33 -13 -18 -14 -18 -13 5 1
14 -4 23 -11 22 -7 -2 -10 3 -7 11 7 18 38 14 42 -5z m126 -156 c12 5 13 1 7
-16 -12 -35 0 -74 19 -62 5 3 14 -4 20 -15 6 -11 15 -18 19 -16 4 3 18 -6 31
-19 13 -13 28 -21 34 -18 6 4 5 -1 -2 -10 -8 -9 -11 -21 -8 -26 4 -5 2 -12 -3
-15 -5 -4 -11 8 -13 26 l-3 33 -6 -37 c-2 -20 -1 -34 3 -32 4 3 6 -10 3 -28
l-5 -33 10 33 c13 41 18 41 17 -2 0 -19 -4 -33 -8 -30 -4 2 -5 -6 -1 -18 3
-14 2 -19 -7 -14 -6 4 -9 11 -6 16 7 11 -20 32 -30 22 -4 -4 -2 3 6 15 12 20
11 25 -9 46 -12 13 -19 26 -16 30 9 9 -16 38 -27 31 -5 -3 -9 2 -9 12 0 13 3
14 13 5 10 -8 14 -7 14 4 0 8 -4 12 -9 9 -4 -3 -5 3 -2 13 6 16 4 15 -10 -2
-15 -17 -17 -18 -12 -2 4 12 2 16 -6 11 -7 -5 -8 -3 -3 6 5 9 4 11 -3 6 -9 -5
-9 -13 -2 -26 5 -10 10 -24 10 -31 0 -15 -15 -2 -15 14 -1 7 -7 11 -14 9 -9
-2 -10 2 -3 15 7 11 5 30 -4 56 -18 51 -18 63 1 47 8 -7 21 -10 29 -7z m43
-45 c-3 -8 -6 -5 -6 6 -1 11 2 17 5 13 3 -3 4 -12 1 -19z m107 -167 c0 -25 -1
-49 -2 -53 -1 -5 -2 -11 -3 -15 0 -5 -4 -12 -8 -18 -11 -15 -7 -40 7 -37 17 3
15 -13 -5 -29 -9 -8 -14 -9 -10 -3 3 6 0 19 -7 29 -10 15 -11 23 0 44 6 14 11
49 10 77 -2 32 1 51 8 51 7 0 11 -19 10 -46z m90 -10 c4 -1 6 -8 3 -16 -4 -8
-2 -17 2 -19 5 -3 9 -17 9 -31 0 -13 -5 -22 -10 -19 -5 3 -6 15 -3 27 4 15 3
18 -3 9 -8 -11 -10 -11 -15 1 -3 8 0 21 6 28 10 11 9 11 -5 0 -10 -7 -18 -10
-18 -5 0 5 -5 2 -11 -6 -9 -13 -10 -12 -5 2 3 10 0 20 -7 24 -7 4 -9 4 -5 0 3
-4 0 -22 -7 -39 -7 -19 -9 -40 -4 -52 6 -16 8 -17 8 -3 1 9 6 20 13 24 8 5 9
2 4 -12 -12 -32 -12 -36 7 -39 9 -2 22 6 28 17 14 26 22 17 11 -13 -5 -13 -6
-33 -1 -44 7 -19 8 -19 8 -1 1 14 4 16 14 7 16 -13 28 -5 20 15 -7 19 50 14
59 -6 6 -11 7 -10 7 5 -2 32 1 45 9 45 4 0 7 -17 6 -38 -1 -47 4 -56 22 -41
11 9 14 8 15 -7 0 -15 2 -14 10 5 5 13 12 21 15 18 3 -3 2 -14 -3 -24 -13 -25
-10 -49 5 -45 7 1 13 -2 13 -8 1 -6 3 -14 4 -20 1 -5 3 -16 4 -22 1 -10 3 -10
10 0 7 11 9 11 14 -2 9 -24 -8 -28 -28 -6 -10 11 -23 17 -29 13 -6 -4 -4 2 4
12 9 11 10 16 3 11 -7 -4 -13 -3 -13 3 0 5 -5 22 -10 36 -9 22 -13 25 -25 15
-12 -10 -16 -8 -24 12 -5 13 -16 30 -25 37 -13 11 -17 9 -26 -14 -8 -21 -13
-25 -24 -16 -10 8 -16 8 -25 -2 -6 -8 -7 -18 -3 -23 4 -4 0 -3 -10 4 -9 7 -15
21 -13 30 4 25 -15 45 -30 32 -8 -7 -15 -3 -23 16 -7 14 -16 23 -21 20 -8 -5
-8 22 -1 32 2 1 3 5 5 10 1 4 5 15 8 25 4 9 9 23 11 31 4 11 19 13 70 7z m-16
-65 c7 -15 6 -26 -2 -36 -14 -18 -41 -26 -30 -9 4 7 8 23 10 36 2 23 1 24 -16
8 -18 -16 -18 -16 -14 2 7 26 39 26 52 -1z m82 -1 c15 3 20 -2 20 -16 0 -11 4
-18 10 -14 5 3 7 12 3 20 -3 8 0 15 6 15 15 0 44 -47 36 -60 -6 -9 8 -15 28
-11 5 1 7 -6 5 -16 -2 -10 -8 -17 -13 -16 -6 1 -15 -3 -21 -8 -7 -6 -10 4 -10
32 1 47 -11 60 -31 33 -8 -11 -26 -19 -41 -19 -20 0 -27 -5 -26 -18 2 -13 -1
-15 -10 -7 -7 5 -16 6 -20 2 -5 -4 -1 10 8 31 8 21 15 41 15 45 -1 4 -1 14 0
22 1 12 3 12 11 -2 6 -10 19 -15 30 -13z m148 -102 c2 -10 3 -34 4 -53 l0 -35
8 30 c7 28 14 19 11 -16 -1 -8 5 -28 13 -44 8 -16 13 -33 9 -37 -7 -12 -13 -5
-18 21 -5 28 -15 42 -24 37 -8 -5 -11 8 -12 59 -1 21 -2 24 -6 10 -3 -11 -9
-24 -14 -29 -5 -6 -6 1 -3 15 4 13 6 37 6 53 -1 22 1 27 10 18 7 -7 14 -20 16
-29z m72 18 c0 12 2 12 9 0 5 -8 7 -20 4 -27 -2 -6 0 -15 6 -19 6 -3 11 -16
11 -28 0 -17 -2 -19 -9 -7 -6 8 -7 18 -4 24 4 5 0 6 -8 1 -8 -5 -11 -5 -7 0
11 12 -11 45 -26 39 -14 -5 -10 -54 5 -54 5 0 9 -8 9 -17 0 -15 -2 -16 -10 -3
-8 12 -9 10 -7 -7 2 -12 7 -26 12 -30 4 -5 5 -3 1 4 -3 6 -1 15 5 19 9 5 10 0
7 -14 -4 -12 -1 -25 4 -29 7 -4 8 -1 3 7 -5 8 -4 11 3 6 8 -5 8 2 0 24 -5 17
-8 33 -5 36 3 3 11 -11 17 -32 l13 -37 13 24 c11 21 13 21 14 5 0 -11 2 -17 5
-14 3 3 2 20 -2 39 l-7 34 -8 -34 c-11 -42 -20 -36 -12 8 5 21 11 30 20 27 7
-3 16 0 20 5 12 20 27 -7 15 -28 -10 -17 -10 -17 -11 2 -1 11 -4 15 -6 9 -3
-6 0 -22 5 -35 7 -18 10 -20 10 -6 1 10 5 16 10 13 5 -3 9 0 8 7 -1 32 4 48
13 42 6 -4 7 -12 3 -18 -4 -7 -8 -16 -8 -22 0 -5 -9 -23 -19 -38 -13 -19 -22
-25 -29 -18 -7 7 -15 7 -24 0 -7 -7 -13 -8 -13 -4 0 5 -9 0 -19 -9 -19 -17
-20 -16 -36 18 -10 20 -15 42 -12 50 3 7 -2 24 -10 36 -9 13 -12 25 -6 29 5 3
13 15 17 26 7 20 8 20 22 1 10 -14 14 -16 14 -5z m-5 -50 c2 -12 0 -19 -6 -16
-5 4 -9 16 -9 27 0 26 9 19 15 -11z"/>
<path d="M1836 7531 c-7 -10 10 -61 19 -61 4 0 3 5 0 10 -4 6 -2 17 4 24 8 10
8 16 -3 25 -9 7 -17 8 -20 2z"/>
<path d="M1896 7443 c-6 -14 -5 -15 5 -6 7 7 10 15 7 18 -3 3 -9 -2 -12 -12z"/>
<path d="M1880 7387 c0 -9 5 -17 10 -17 6 0 10 -8 11 -17 0 -14 2 -15 6 -3 3
8 10 18 15 21 5 3 2 12 -7 19 -13 11 -15 10 -9 -6 5 -18 5 -18 -10 0 -14 17
-16 18 -16 3z"/>
<path d="M1900 7306 c0 -2 8 -10 18 -17 15 -13 16 -12 3 4 -13 16 -21 21 -21
13z"/>
<path d="M1957 7209 c7 -26 19 -32 19 -9 0 11 -6 22 -12 24 -7 3 -10 -3 -7
-15z"/>
<path d="M2034 7104 c1 -8 8 -20 14 -26 15 -15 16 -32 2 -23 -15 9 -12 -1 4
-14 11 -9 13 -7 12 11 -1 13 2 28 6 35 6 7 4 14 -4 19 -22 14 -36 13 -34 -2z
m30 -15 c-3 -5 -10 -7 -15 -3 -5 3 -7 10 -3 15 3 5 10 7 15 3 5 -3 7 -10 3
-15z"/>
<path d="M2186 6998 c3 -5 10 -6 15 -3 13 9 11 12 -6 12 -8 0 -12 -4 -9 -9z"/>
<path d="M2265 6931 c17 -21 18 -24 3 -18 -25 9 -22 0 3 -14 15 -8 19 -8 15 0
-4 6 -2 11 3 11 6 0 11 -5 11 -12 0 -6 3 -9 6 -6 3 4 0 16 -6 28 -6 12 -14 19
-17 16 -4 -3 -13 0 -22 6 -9 7 -7 2 4 -11z"/>
<path d="M2360 6866 c0 -2 7 -7 16 -10 8 -3 12 -2 9 4 -6 10 -25 14 -25 6z"/>
<path d="M2135 7394 c0 -23 5 -28 28 -29 16 -1 26 3 24 9 -2 6 -9 11 -15 11
-6 0 -17 8 -25 18 -12 17 -13 17 -12 -9z"/>
<path d="M1966 7362 c-10 -17 -17 -72 -9 -72 5 0 10 9 11 20 4 43 6 49 14 44
4 -3 3 -14 -3 -25 -6 -12 -8 -23 -5 -26 3 -4 1 -12 -4 -18 -7 -9 -6 -16 3 -23
10 -8 13 -5 15 14 3 37 11 47 28 33 15 -13 18 -39 6 -54 -4 -6 -5 -9 -3 -8 2
2 10 -2 16 -7 9 -8 14 -6 19 5 3 8 1 15 -3 15 -10 0 -9 26 2 36 4 4 7 -1 8
-12 0 -10 2 -29 3 -41 1 -12 -1 -20 -5 -17 -4 2 -10 0 -14 -6 -3 -5 -2 -10 4
-10 6 0 8 -6 5 -14 -3 -8 -1 -23 6 -33 10 -16 11 -15 6 7 -3 14 -2 31 3 38 5
8 8 1 8 -18 0 -17 7 -38 16 -48 16 -15 18 -15 30 2 22 30 34 -9 14 -41 -8 -13
6 -27 17 -16 3 3 6 19 6 35 0 15 4 28 9 28 5 0 8 8 6 18 -6 28 -7 28 -15 2 -6
-21 -8 -17 -15 27 -9 61 -22 63 -19 4 2 -44 -21 -77 -32 -47 -3 8 -4 21 -1 28
2 7 0 22 -6 33 -9 17 -13 38 -19 92 -1 9 -5 10 -14 2 -15 -12 -29 7 -26 36 l2
20 -9 -20 c-9 -19 -12 -18 -15 7 -1 12 -34 20 -40 10z m25 -45 c-10 -9 -11 -8
-5 6 3 10 9 15 12 12 3 -3 0 -11 -7 -18z"/>
<path d="M2130 7294 c0 -18 5 -36 10 -39 6 -3 10 -21 11 -38 1 -30 1 -31 8 -7
5 14 3 34 -3 45 -20 40 -11 70 13 41 14 -17 23 -79 10 -71 -5 4 -9 -3 -9 -14
0 -11 4 -22 9 -25 9 -6 9 -23 0 -41 -6 -12 -5 -24 5 -47 10 -23 0 -51 -15 -42
-8 4 -9 3 -5 -4 14 -23 35 0 38 41 4 59 23 48 23 -13 0 -44 5 -57 18 -47 2 1
10 -3 18 -10 21 -17 59 11 39 30 -9 8 -11 8 -6 0 3 -6 2 -14 -3 -17 -5 -4 -8
5 -6 19 1 14 -2 28 -8 32 -6 3 -7 1 -3 -5 4 -8 2 -10 -8 -6 -10 4 -16 -3 -19
-23 -3 -15 -2 8 0 52 3 44 1 77 -3 72 -4 -4 -18 3 -31 15 -19 17 -23 19 -17 5
3 -9 10 -17 16 -17 5 0 6 -5 2 -11 -4 -8 -11 -3 -20 12 -10 19 -10 27 0 39 16
19 13 60 -5 71 -8 4 -14 14 -14 20 0 7 -10 13 -22 14 -20 1 -23 -3 -23 -31z
m106 -151 c2 -11 0 -13 -8 -5 -8 8 -17 8 -32 1 -16 -8 -16 -6 4 10 26 21 33
20 36 -6z m36 -98 c3 -13 1 -22 -3 -19 -9 5 -13 44 -5 44 2 0 6 -11 8 -25z"/>
<path d="M1754 7296 c1 -8 5 -18 8 -22 4 -3 5 1 4 10 -1 8 -5 18 -8 22 -4 3
-5 -1 -4 -10z"/>
<path d="M1800 7284 c0 -8 -5 -12 -11 -8 -8 4 -8 1 -1 -12 5 -11 8 -27 6 -37
-1 -11 1 -16 4 -12 4 4 7 10 7 13 0 4 4 13 9 21 6 10 5 12 -3 7 -8 -6 -10 0
-5 18 3 14 3 26 0 26 -3 0 -6 -7 -6 -16z"/>
<path d="M2154 7289 c1 -8 7 -23 14 -34 12 -19 13 -18 6 5 -7 27 -24 51 -20
29z"/>
<path d="M2268 7232 c-5 -16 -11 -20 -25 -15 -17 6 -17 6 1 -15 13 -15 17 -32
14 -57 -2 -19 0 -35 4 -35 4 0 8 6 9 13 0 6 2 27 4 45 2 21 0 30 -7 26 -7 -4
-8 -2 -4 5 10 16 29 3 22 -16 -4 -9 -2 -11 6 -7 7 5 8 3 3 -6 -5 -9 -4 -11 4
-6 6 4 15 -2 21 -16 10 -21 10 -21 6 -2 -2 16 1 21 13 19 9 -1 21 4 26 12 8
10 10 7 12 -13 1 -19 -1 -23 -8 -13 -7 12 -9 12 -9 -1 0 -13 -1 -13 -11 0 -9
12 -10 11 -6 -7 3 -13 2 -25 -3 -28 -4 -2 -5 -15 -3 -29 3 -13 -1 -27 -8 -31
-9 -6 -11 -3 -6 8 4 11 -1 21 -14 28 -11 6 -18 17 -15 24 3 8 1 17 -4 20 -6 4
-10 -1 -10 -9 0 -8 -8 -20 -17 -26 -14 -9 -14 -10 -2 -7 20 6 31 -1 48 -36 11
-20 17 -24 23 -15 6 8 7 1 4 -19 -2 -18 0 -33 5 -33 6 0 7 -4 4 -10 -3 -5 -3
-10 2 -10 4 0 8 31 7 70 0 66 12 121 15 66 3 -61 3 -60 17 -42 13 19 30 4 18
-16 -4 -6 -3 -8 4 -5 6 5 8 -1 4 -15 -3 -14 -2 -19 7 -14 6 4 8 13 4 19 -4 8
-2 8 9 -1 13 -10 17 -10 22 4 5 13 9 14 21 4 9 -7 18 -11 20 -8 3 3 -1 11 -10
18 -12 10 -18 10 -30 0 -15 -12 -39 -5 -30 10 3 4 2 16 -1 25 -5 13 -8 14 -15
3 -6 -9 -9 -6 -10 12 0 14 -3 34 -5 45 -3 11 -6 26 -8 34 -4 20 -33 22 -40 4
-5 -12 -9 -13 -21 -3 -8 7 -15 9 -15 4 0 -14 -27 30 -32 51 -4 19 -4 19 -10
-3z m119 -139 c-3 -10 -5 -4 -5 12 0 17 2 24 5 18 2 -7 2 -21 0 -30z"/>
<path d="M1751 7224 c0 -11 3 -14 6 -6 3 7 2 16 -1 19 -3 4 -6 -2 -5 -13z"/>
<path d="M1801 7146 c-9 -11 -9 -16 1 -22 7 -4 10 -4 6 1 -4 4 -3 14 3 22 6 7
9 13 6 13 -2 0 -10 -6 -16 -14z"/>
<path d="M2291 7143 c9 -10 15 -23 12 -29 -2 -6 4 -15 14 -18 9 -4 14 -4 10 0
-4 4 -1 14 6 22 10 13 9 14 -1 8 -7 -4 -15 0 -20 11 -4 10 -14 19 -22 21 -12
3 -12 0 1 -15z"/>
<path d="M1856 7123 c-6 -14 -5 -15 5 -6 7 7 10 15 7 18 -3 3 -9 -2 -12 -12z"/>
<path d="M1877 7121 c-4 -17 -3 -21 5 -13 5 5 8 16 6 23 -3 8 -7 3 -11 -10z"/>
<path d="M2489 7112 c7 -13 10 -28 7 -35 -2 -7 -5 -4 -5 6 -1 9 -5 17 -11 17
-16 0 -12 -19 10 -42 16 -17 17 -24 7 -41 -7 -11 -17 -28 -24 -39 -11 -20 -11
-20 -16 -2 -3 11 -4 -2 -2 -29 1 -26 -1 -49 -5 -52 -4 -3 -7 8 -6 23 1 17 -3
29 -11 29 -6 0 -9 -5 -6 -11 4 -6 -1 -5 -10 3 -12 9 -14 17 -7 26 6 8 5 16 -3
25 -10 12 -9 12 5 1 10 -7 16 -17 13 -21 -3 -5 -1 -11 5 -15 5 -3 9 9 8 30 -1
22 -4 31 -9 23 -11 -17 -29 1 -32 30 -1 14 -5 18 -13 12 -6 -6 -14 -7 -17 -3
-9 8 -9 -40 -1 -61 3 -9 10 -16 16 -16 5 0 6 5 3 10 -3 6 -1 10 4 10 14 0 14
-13 -1 -28 -9 -9 -9 -12 0 -12 7 0 11 -5 10 -12 -2 -7 2 -12 7 -13 19 -1 34
-16 29 -29 -3 -7 3 -16 13 -20 9 -4 14 -4 11 0 -4 3 -1 13 7 20 7 8 12 25 9
38 -2 14 4 33 16 47 17 21 19 22 20 6 0 -11 -4 -15 -11 -11 -7 4 -10 1 -7 -6
11 -35 24 -16 24 34 0 30 -4 52 -8 50 -4 -3 -8 0 -8 5 0 6 4 11 9 11 13 0 1
37 -17 52 -13 12 -14 10 -3 -10z m-102 -86 c-3 -8 -1 -16 6 -19 6 -2 5 -6 -5
-9 -11 -5 -15 -1 -13 15 3 26 3 27 11 27 3 0 4 -6 1 -14z"/>
<path d="M1845 7071 c-3 -5 -2 -12 3 -15 5 -3 9 1 9 9 0 17 -3 19 -12 6z"/>
<path d="M2601 7046 c-9 -11 -9 -16 1 -22 7 -4 10 -4 6 1 -4 4 -3 14 3 22 6 7
9 13 6 13 -2 0 -10 -6 -16 -14z"/>
<path d="M2557 7039 c7 -7 15 -10 18 -7 3 3 -2 9 -12 12 -14 6 -15 5 -6 -5z"/>
<path d="M1883 7025 c0 -8 4 -12 9 -9 5 3 6 10 3 15 -9 13 -12 11 -12 -6z"/>
<path d="M2453 7017 c-12 -27 4 -33 25 -11 8 9 8 15 -2 23 -10 8 -15 5 -23
-12z"/>
<path d="M8429 7024 c6 -12 6 -26 0 -35 -5 -7 -8 -21 -8 -29 0 -10 3 -8 9 5 8
18 9 18 9 2 1 -11 6 -15 12 -11 8 4 9 -1 4 -17 -4 -17 -3 -20 3 -10 7 9 12 10
16 2 4 -6 2 -11 -4 -11 -6 0 -9 -4 -6 -8 2 -4 1 -14 -5 -22 -7 -13 -9 -13 -9
-1 0 11 -4 10 -14 -4 -13 -18 -14 -17 -11 8 2 15 -1 27 -7 27 -6 0 -8 -7 -4
-15 9 -23 0 -18 -20 13 -13 20 -13 24 -2 15 13 -11 15 -8 16 18 1 30 0 31 -14
11 -8 -12 -22 -19 -34 -17 -11 2 -22 -1 -25 -6 -4 -5 -10 -7 -15 -4 -5 3 -17
-6 -26 -20 -9 -13 -20 -23 -24 -20 -15 9 -22 -14 -10 -32 10 -16 11 -16 7 3
-4 18 0 22 20 19 17 -2 27 4 32 18 7 20 8 20 15 -4 5 -13 7 -33 6 -44 -2 -20
-2 -20 13 0 10 13 12 22 5 26 -7 4 -6 9 1 14 7 4 9 16 5 28 -5 20 -4 20 12 -3
10 -14 26 -33 35 -44 10 -10 15 -24 13 -30 -3 -7 2 -25 10 -41 l15 -28 6 36
c4 20 4 40 0 46 -3 6 -2 11 3 11 6 0 13 11 16 25 6 24 26 27 26 4 0 -6 -5 -7
-12 -3 -8 5 -9 0 -4 -17 5 -13 8 -37 8 -53 0 -25 2 -27 10 -12 5 9 7 24 4 32
-3 9 3 27 13 40 13 17 21 20 24 12 4 -9 6 -9 6 -1 1 19 -19 26 -25 8 -6 -14
-9 -13 -21 5 -13 19 -13 23 3 41 16 18 16 19 1 13 -9 -3 -17 -10 -17 -15 0 -5
-5 -9 -12 -9 -6 0 -9 3 -5 6 3 4 -3 14 -15 24 -21 17 -17 47 4 34 7 -5 8 -2 4
5 -5 7 -10 10 -14 7 -3 -3 -11 2 -19 12 -13 16 -13 15 -4 -4z m-84 -93 c-3 -5
-1 -12 5 -16 6 -4 7 -11 3 -18 -4 -7 -9 -4 -13 9 -7 18 -4 34 6 34 3 0 3 -4
-1 -9z m-32 -16 c-3 -9 -8 -14 -10 -11 -3 3 -2 9 2 15 9 16 15 13 8 -4z m134
-70 c1 -20 -2 -33 -6 -31 -8 6 -7 66 2 66 1 0 3 -16 4 -35z"/>
<path d="M1970 7014 c0 -5 5 -16 10 -24 6 -10 4 -20 -6 -31 -10 -12 -12 -19
-4 -24 5 -3 7 -11 4 -17 -4 -7 -2 -8 5 -4 9 6 9 11 1 21 -12 14 11 40 25 27 4
-4 0 7 -11 23 -24 40 -24 40 -24 29z"/>
<path d="M1946 6991 c-4 -5 -2 -12 3 -15 5 -4 12 -2 15 3 4 5 2 12 -3 15 -5 4
-12 2 -15 -3z"/>
<path d="M1936 6943 c-6 -14 -5 -15 5 -6 7 7 10 15 7 18 -3 3 -9 -2 -12 -12z"/>
<path d="M2549 6946 c6 -7 8 -21 5 -33 -6 -23 15 -36 37 -22 9 6 10 9 2 9 -6
0 -10 9 -8 20 4 19 -8 33 -33 36 -9 2 -10 -1 -3 -10z m25 -42 c3 -8 2 -12 -4
-9 -6 3 -10 10 -10 16 0 14 7 11 14 -7z"/>
<path d="M2629 6949 c-6 -31 -6 -39 2 -39 6 0 6 -8 0 -19 -8 -15 -7 -20 6 -26
10 -3 14 -3 10 1 -4 4 -1 14 5 22 13 15 23 61 12 49 -4 -4 -13 -2 -21 4 -7 6
-13 10 -14 8z m21 -28 c7 -15 7 -22 -2 -27 -7 -4 -10 -4 -6 1 4 4 3 16 -3 26
-5 11 -7 19 -5 19 3 0 10 -9 16 -19z"/>
<path d="M8425 6930 c8 -9 13 -19 10 -22 -3 -2 1 -5 8 -5 10 0 11 6 3 22 -5
12 -16 22 -23 22 -10 0 -10 -4 2 -17z"/>
<path d="M1955 6900 c10 -11 20 -20 23 -20 3 0 -3 9 -13 20 -10 11 -20 20 -23
20 -3 0 3 -9 13 -20z"/>
<path d="M8226 6887 c-6 -21 -7 -21 -20 -4 -12 16 -14 16 -20 1 -8 -22 -8 -22
11 -20 21 1 24 -32 5 -55 -11 -14 -9 -16 13 -14 27 4 45 -17 38 -45 -3 -10 1
-17 10 -17 15 0 17 13 5 33 -4 6 -1 22 7 37 8 15 12 27 10 27 -3 0 0 11 5 25
6 15 6 25 0 25 -5 0 -12 -17 -16 -37 l-7 -38 -13 39 c-8 21 -11 42 -9 46 3 5
1 11 -4 14 -5 3 -12 -4 -15 -17z m18 -41 c3 -13 9 -32 12 -43 5 -17 5 -17 -6
1 -9 13 -14 15 -20 6 -4 -7 -7 4 -6 24 1 41 11 47 20 12z"/>
<path d="M1993 6885 c0 -8 4 -12 9 -9 5 3 6 10 3 15 -9 13 -12 11 -12 -6z"/>
<path d="M2016 6862 l-19 -27 24 22 c12 12 21 24 18 27 -2 2 -13 -8 -23 -22z"/>
<path d="M2075 6881 c-3 -5 -2 -12 3 -15 5 -3 9 1 9 9 0 17 -3 19 -12 6z"/>
<path d="M8306 6861 c-14 -26 -14 -30 2 -42 9 -7 14 -9 10 -5 -4 5 -4 14 1 20
15 20 20 45 11 51 -5 3 -16 -8 -24 -24z m5 -24 c-10 -9 -11 -8 -5 6 3 10 9 15
12 12 3 -3 0 -11 -7 -18z"/>
<path d="M8006 6871 c-3 -5 -14 -8 -24 -6 -9 1 -22 -7 -29 -19 -9 -14 -12 -16
-13 -6 0 12 -2 12 -10 -2 -6 -10 -19 -15 -32 -13 -11 3 -18 1 -14 -2 3 -4 -4
-18 -16 -31 -13 -14 -17 -22 -9 -17 10 6 12 4 6 -5 -6 -10 -11 -10 -20 4 -10
13 -14 14 -18 3 -6 -15 -43 -17 -64 -4 -18 12 -16 -8 2 -23 9 -7 14 -19 11
-26 -3 -7 0 -16 6 -20 7 -5 9 4 6 26 -4 27 -3 30 7 17 10 -14 12 -14 23 1 11
14 11 14 2 -4 -7 -17 -6 -25 5 -34 13 -11 15 -9 13 11 -2 13 2 24 7 24 21 1
36 18 30 33 -3 9 -3 13 1 9 5 -4 14 3 21 15 8 15 12 18 13 8 0 -13 1 -13 10 0
9 13 10 13 10 0 0 -13 2 -13 11 0 9 12 10 11 4 -5 -16 -47 -16 -50 -1 -31 11
14 16 15 16 6 0 -9 5 -7 14 5 8 11 12 24 9 28 -3 5 -9 4 -13 -3 -4 -7 -7 -1
-7 15 0 19 4 25 14 21 8 -3 11 -2 8 3 -6 10 45 4 55 -6 3 -3 -4 -3 -16 -1 -25
4 -27 -9 -7 -37 15 -20 15 -20 11 0 -4 16 0 21 16 22 12 1 15 -1 9 -4 -15 -6
-17 -33 -3 -33 6 0 10 -5 10 -11 0 -5 -4 -8 -9 -4 -5 3 -13 0 -17 -6 -4 -7 -3
-9 2 -6 6 3 16 2 24 -4 12 -7 12 -9 1 -9 -10 0 -11 -3 -2 -13 6 -8 8 -17 4
-20 -3 -4 -1 -7 6 -7 7 0 11 8 10 18 -2 19 17 72 26 72 4 0 4 -9 0 -19 -3 -11
0 -23 6 -27 9 -5 10 -2 6 10 -4 10 -3 15 3 11 6 -3 10 0 10 7 0 10 2 10 9 0 4
-8 12 -14 17 -14 5 -1 8 -9 6 -20 -2 -10 1 -18 6 -18 14 0 10 33 -8 63 -15 25
-18 26 -24 10 -7 -17 -8 -17 -21 0 -11 16 -13 16 -19 1 -5 -13 -9 -14 -21 -4
-12 10 -13 16 -3 28 10 13 10 14 0 8 -8 -5 -15 1 -21 16 -6 13 -10 19 -10 14
-1 -5 -7 -3 -15 3 -9 7 -17 8 -20 2z m73 -100 c-2 -6 -10 2 -17 17 -11 25 -11
25 4 10 9 -9 15 -21 13 -27z"/>
<path d="M8564 6838 c0 -12 7 -23 14 -24 7 -1 8 0 3 2 -6 3 -8 11 -5 19 3 7 1
16 -4 19 -5 3 -9 -4 -8 -16z"/>
<path d="M7987 6820 c10 -13 10 -20 -3 -38 -8 -12 -19 -20 -24 -17 -5 3 -11 1
-15 -5 -10 -16 -26 0 -20 19 3 11 0 18 -8 18 -9 0 -13 -8 -11 -21 3 -12 2 -15
-2 -8 -4 9 -12 5 -26 -13 -11 -14 -24 -23 -29 -20 -5 4 -9 1 -9 -4 0 -6 5 -11
11 -11 8 0 7 -5 -1 -15 -11 -13 -11 -18 0 -28 10 -10 12 -8 7 6 -4 11 -3 16 3
12 6 -4 9 -3 8 2 -2 4 1 9 5 10 5 1 15 10 23 20 8 11 13 13 14 6 0 -7 5 -13
12 -13 9 0 9 3 0 12 -7 7 -12 16 -12 20 0 4 9 -1 19 -11 22 -22 22 -41 2 -65
-8 -9 -11 -19 -8 -23 4 -3 9 2 13 11 3 9 10 14 14 11 4 -3 7 11 6 31 -1 34 7
49 29 49 6 0 10 5 10 12 0 6 3 15 7 19 4 3 5 -4 1 -17 -3 -13 -6 -45 -7 -71
-2 -35 1 -45 10 -38 11 10 40 -11 29 -22 -3 -2 2 -5 11 -5 10 0 14 7 11 19 -3
10 0 18 6 18 7 0 7 4 -2 9 -8 5 -12 18 -8 30 3 12 1 24 -4 27 -5 3 -7 10 -3
15 3 5 2 9 -3 8 -20 -3 -24 2 -13 17 8 8 9 14 3 12 -5 -2 -20 8 -34 22 -13 15
-18 19 -12 10z m-87 -70 c0 -5 -10 -15 -22 -21 l-23 -12 20 21 c23 24 25 25
25 12z m137 -47 c-3 -19 -2 -31 2 -29 4 3 8 -1 8 -9 0 -11 -4 -12 -13 -4 -8 7
-11 22 -7 40 3 18 0 36 -8 46 -13 17 -12 17 4 3 14 -10 18 -22 14 -47z m-21
12 c1 -8 -1 -17 -5 -19 -4 -3 -7 6 -7 19 0 25 8 25 12 0z"/>
<path d="M2025 6821 c-3 -5 -2 -12 3 -15 5 -3 9 1 9 9 0 17 -3 19 -12 6z"/>
<path d="M7746 6822 c-3 -5 1 -9 9 -9 8 0 12 4 9 9 -3 4 -7 8 -9 8 -2 0 -6 -4
-9 -8z"/>
<path d="M8276 6785 c-3 -8 -1 -15 4 -15 6 0 10 7 10 15 0 8 -2 15 -4 15 -2 0
-6 -7 -10 -15z"/>
<path d="M8383 6782 c1 -12 6 -18 14 -15 16 6 13 25 -5 31 -6 2 -10 -6 -9 -16z"/>
<path d="M2085 6781 c-3 -5 -2 -12 3 -15 5 -3 9 1 9 9 0 17 -3 19 -12 6z"/>
<path d="M7444 6764 c5 -10 17 -41 27 -69 54 -147 56 -150 63 -122 4 18 11 24
21 21 8 -4 12 -10 9 -15 -3 -5 -9 -7 -14 -4 -10 6 -19 -41 -12 -67 4 -18 5
-18 16 4 8 15 20 23 39 23 16 0 33 9 42 23 9 12 21 20 26 16 5 -3 7 -9 5 -13
-3 -4 -1 -13 4 -21 12 -20 31 -1 33 33 1 14 7 25 12 24 6 -1 9 3 8 10 -2 7 4
10 12 7 8 -4 15 -1 15 5 0 6 -6 10 -12 9 -8 -2 -13 10 -13 33 0 20 5 36 11 36
8 0 9 -9 3 -31 -12 -42 -11 -46 5 -16 8 14 12 28 10 32 -2 3 1 10 7 14 8 5 10
0 6 -17 -3 -13 -2 -30 2 -38 6 -9 9 -2 9 23 0 20 -4 39 -9 42 -5 3 -7 10 -4
15 4 5 -3 21 -14 35 -12 15 -21 21 -21 13 0 -11 -2 -11 -10 1 -5 8 -10 10 -10
5 0 -6 5 -16 11 -22 6 -6 8 -16 4 -23 -5 -8 -13 -6 -27 7 -19 17 -20 17 -17
-2 2 -11 10 -25 18 -31 17 -14 20 -82 4 -96 -9 -7 -16 0 -27 25 -7 19 -19 37
-24 41 -6 4 -9 16 -7 27 4 21 4 21 -16 3 -14 -13 -22 -15 -30 -7 -13 13 -42 6
-33 -8 3 -5 0 -9 -5 -9 -13 0 -14 11 -3 25 10 14 42 18 42 5 0 -5 5 -10 10
-10 7 0 7 7 -1 21 -8 15 -8 24 0 32 6 6 11 16 11 22 0 5 -9 -3 -20 -20 -11
-16 -20 -24 -20 -16 0 11 -4 9 -15 -5 -8 -10 -15 -15 -15 -10 0 5 -7 3 -15 -4
-8 -6 -19 -9 -24 -6 -5 4 -14 -1 -19 -9 -7 -13 -11 -7 -21 24 -6 22 -17 43
-23 47 -8 5 -9 1 -4 -12z m313 -43 c-1 -19 -39 -23 -54 -7 -4 5 -3 6 4 2 6 -3
14 -2 18 4 4 6 11 8 16 5 13 -9 11 9 -3 25 -11 12 -10 12 4 1 9 -7 16 -20 15
-30z m-217 -21 c-9 -16 -8 -22 5 -26 8 -3 15 -13 15 -21 0 -8 5 -11 10 -8 6 4
8 10 6 14 -3 4 0 13 6 21 8 12 9 12 4 -2 -3 -10 -1 -18 4 -18 6 0 10 6 10 13
0 6 5 4 11 -6 5 -9 7 -22 4 -27 -3 -6 -2 -10 3 -10 16 0 22 13 11 26 -7 8 -7
14 1 19 5 3 10 -1 10 -10 0 -10 5 -13 13 -9 7 5 6 0 -3 -11 -14 -17 -13 -18 5
-11 11 4 16 4 13 0 -4 -4 1 -17 11 -30 11 -14 17 -33 14 -45 -5 -19 -7 -18
-21 10 -8 17 -19 31 -24 31 -5 0 -7 -4 -4 -9 9 -13 -33 -45 -61 -47 -14 0 -29
-7 -34 -15 -5 -8 -9 -9 -9 -3 0 6 9 22 19 36 21 26 17 41 -11 46 -12 2 -18 -4
-18 -15 0 -10 -9 2 -20 26 -22 48 -25 71 -9 71 5 0 7 6 3 13 -6 9 -4 9 8 -1
13 -10 17 -10 22 3 3 8 8 15 11 15 3 0 1 -9 -5 -20z"/>
<path d="M7506 6682 c-4 -7 -4 -22 0 -34 6 -21 7 -21 20 -3 16 22 19 12 4 -14
-8 -15 -5 -18 16 -15 15 1 28 -4 34 -16 13 -24 13 -43 1 -35 -5 3 -12 1 -15
-3 -8 -13 39 -8 56 5 7 7 14 24 15 40 0 15 -1 20 -4 11 -2 -10 -10 -18 -16
-18 -9 0 -9 -2 -1 -8 8 -5 7 -11 -4 -22 -14 -13 -15 -12 -9 3 3 9 2 19 -2 22
-5 2 -11 14 -14 25 -3 11 -1 18 4 14 5 -3 9 -12 9 -20 0 -8 5 -12 10 -9 8 5 7
11 0 20 -7 8 -8 20 -4 27 5 8 -1 7 -16 -3 -24 -16 -26 -16 -51 14 -17 21 -28
27 -33 19z m11 -24 c-3 -8 -6 -5 -6 6 -1 11 2 17 5 13 3 -3 4 -12 1 -19z"/>
<path d="M7665 6596 c10 -14 19 -26 22 -26 7 0 -17 39 -28 46 -6 3 -3 -5 6
-20z"/>
<path d="M7494 6772 c4 -3 14 -7 22 -8 9 -1 13 0 10 4 -4 3 -14 7 -22 8 -9 1
-13 0 -10 -4z"/>
<path d="M2149 6768 c-5 -18 -6 -38 -1 -34 7 8 12 36 6 36 -2 0 -4 -1 -5 -2z"/>
<path d="M8133 6751 c2 -9 8 -25 14 -36 6 -11 8 -27 5 -35 -2 -8 -2 -12 2 -9
12 11 15 49 4 49 -6 0 -8 11 -6 23 3 15 0 24 -8 24 -8 0 -12 -7 -11 -16z"/>
<path d="M2223 6741 c0 -11 5 -18 9 -15 4 3 5 11 1 19 -7 21 -12 19 -10 -4z"/>
<path d="M2276 6743 c-6 -14 -5 -15 5 -6 7 7 10 15 7 18 -3 3 -9 -2 -12 -12z"/>
<path d="M2321 6734 c0 -11 3 -14 6 -6 3 7 2 16 -1 19 -3 4 -6 -2 -5 -13z"/>
<path d="M2295 6731 c-3 -5 -2 -12 3 -15 5 -3 9 1 9 9 0 17 -3 19 -12 6z"/>
<path d="M2265 6711 c-3 -5 -2 -12 3 -15 5 -3 9 1 9 9 0 17 -3 19 -12 6z"/>
<path d="M7796 6703 c-3 -10 -7 -38 -8 -61 l-1 -42 -20 27 c-12 18 -17 21 -13
8 5 -13 0 -24 -15 -36 -15 -11 -20 -22 -15 -34 6 -15 9 -14 27 8 11 15 26 24
34 20 12 -4 15 3 15 32 0 25 4 34 12 29 7 -5 8 -3 2 7 -12 20 -14 40 -3 33 5
-3 6 -11 3 -17 -5 -8 -2 -8 7 1 11 10 11 15 -3 28 -15 15 -16 15 -22 -3z"/>
<path d="M7894 6708 c-3 -5 -9 -6 -13 -4 -12 8 -6 -91 7 -103 15 -15 16 -6 1
21 -9 16 -8 19 2 13 8 -6 10 -4 4 5 -5 8 0 19 15 30 30 22 34 46 8 46 -11 0
-22 -4 -24 -8z m20 -25 c-9 -7 -21 -10 -26 -7 -14 9 -1 20 22 20 20 0 20 -1 4
-13z"/>
<path d="M2354 6698 c-4 -7 -3 -10 1 -5 5 4 18 -1 29 -10 21 -18 21 -18 2 5
-22 26 -23 26 -32 10z"/>
<path d="M2605 6699 c-4 -6 -5 -12 -2 -15 2 -3 7 2 10 11 7 17 1 20 -8 4z"/>
<path d="M2299 6663 c-13 -16 -12 -17 4 -4 9 7 17 15 17 17 0 8 -8 3 -21 -13z"/>
<path d="M2394 6635 c0 -13 3 -22 7 -19 8 4 6 30 -2 38 -3 3 -5 -5 -5 -19z"/>
<path d="M2459 6643 c-13 -16 -12 -17 4 -4 9 7 17 15 17 17 0 8 -8 3 -21 -13z"/>
<path d="M7904 6631 c5 -44 12 -47 31 -17 10 14 21 23 26 20 5 -3 6 2 3 10 -7
18 -20 21 -29 6 -5 -8 -11 -7 -21 1 -11 9 -13 6 -10 -20z m34 0 c-7 -11 -16
-17 -21 -14 -4 3 0 11 10 19 24 18 25 17 11 -5z"/>
<path d="M8631 6646 c-9 -11 -9 -16 1 -22 7 -4 10 -4 6 1 -4 4 -3 14 3 22 6 7
9 13 6 13 -2 0 -10 -6 -16 -14z"/>
<path d="M8596 6641 c-3 -5 2 -15 12 -22 15 -12 16 -12 5 2 -7 9 -10 19 -6 22
3 4 4 7 0 7 -3 0 -8 -4 -11 -9z"/>
<path d="M2475 6631 c-3 -5 -2 -12 3 -15 5 -3 9 1 9 9 0 17 -3 19 -12 6z"/>
<path d="M2559 6628 c-5 -18 -6 -38 -1 -34 7 8 12 36 6 36 -2 0 -4 -1 -5 -2z"/>
<path d="M2453 6601 c0 -11 5 -18 9 -15 4 3 5 11 1 19 -7 21 -12 19 -10 -4z"/>
<path d="M2520 6611 c0 -6 4 -13 10 -16 6 -3 7 1 4 9 -7 18 -14 21 -14 7z"/>
<path d="M8650 6611 c0 -6 4 -13 10 -16 6 -3 7 1 4 9 -7 18 -14 21 -14 7z"/>
<path d="M8616 6588 c3 -5 10 -6 15 -3 13 9 11 12 -6 12 -8 0 -12 -4 -9 -9z"/>
<path d="M2513 6575 c0 -8 4 -12 9 -9 5 3 6 10 3 15 -9 13 -12 11 -12 -6z"/>
<path d="M2544 6551 c0 -16 4 -27 8 -25 4 2 5 14 3 26 -7 32 -13 32 -11 -1z"/>
<path d="M8563 6563 c0 -9 4 -10 14 -2 7 6 13 12 13 14 0 1 -6 2 -13 2 -8 0
-14 -6 -14 -14z"/>
<path d="M8480 6536 c0 -2 8 -10 18 -17 15 -13 16 -12 3 4 -13 16 -21 21 -21
13z"/>
<path d="M8363 6495 c4 -5 0 -16 -9 -26 -12 -14 -13 -18 -2 -25 7 -4 10 -3 5
1 -4 5 0 16 9 26 12 14 13 18 2 25 -7 4 -10 3 -5 -1z"/>
<path d="M8155 6460 c-4 -6 1 -7 11 -3 13 5 15 3 8 -8 -10 -17 -17 -58 -7 -44
10 14 34 13 31 0 -2 -5 -7 -9 -11 -7 -5 1 -6 -2 -2 -8 5 -8 11 -7 21 1 10 8
11 16 5 22 -5 5 -7 17 -4 26 4 12 2 11 -9 -3 -10 -12 -17 -15 -22 -8 -3 6 -2
13 4 17 11 7 4 25 -10 25 -5 0 -12 -4 -15 -10z"/>
<path d="M8390 6435 c13 -14 26 -25 28 -25 3 0 -5 11 -18 25 -13 14 -26 25
-28 25 -3 0 5 -11 18 -25z"/>
<path d="M8265 6441 c-3 -5 -2 -12 3 -15 5 -3 9 1 9 9 0 17 -3 19 -12 6z"/>
<path d="M8323 6425 c0 -8 4 -12 9 -9 5 3 6 10 3 15 -9 13 -12 11 -12 -6z"/>
<path d="M7937 6407 c-3 -8 -2 -20 3 -26 5 -9 8 -4 8 13 0 29 -3 32 -11 13z"/>
<path d="M8005 6379 c-4 -6 -5 -12 -2 -15 2 -3 7 2 10 11 7 17 1 20 -8 4z"/>
<path d="M7860 6374 c0 -6 7 -19 16 -30 14 -18 14 -18 3 6 -14 31 -19 36 -19
24z"/>
<path d="M8012 6345 c-7 -16 -8 -26 -1 -30 5 -4 9 -3 8 2 -3 20 2 34 11 28 6
-3 7 1 4 9 -8 21 -9 20 -22 -9z"/>
<path d="M8040 6366 c0 -2 8 -10 18 -17 15 -13 16 -12 3 4 -13 16 -21 21 -21
13z"/>
<path d="M8106 6351 c-3 -5 2 -15 12 -22 15 -12 16 -12 5 2 -7 9 -10 19 -6 22
3 4 4 7 0 7 -3 0 -8 -4 -11 -9z"/>
<path d="M8213 6345 c0 -8 4 -12 9 -9 5 3 6 10 3 15 -9 13 -12 11 -12 -6z"/>
<path d="M8249 6343 c-13 -16 -12 -17 4 -4 16 13 21 21 13 21 -2 0 -10 -8 -17
-17z"/>
<path d="M7853 6332 c2 -12 6 -24 10 -28 3 -4 4 4 2 16 -6 30 -16 40 -12 12z"/>
<path d="M7905 6339 c-4 -6 -4 -13 -1 -16 3 -4 6 -1 6 6 0 7 5 9 12 5 7 -4 8
-3 4 4 -9 15 -13 15 -21 1z"/>
<path d="M8144 6328 c-4 -7 -4 -10 1 -6 4 4 15 2 24 -5 14 -11 14 -10 2 6 -16
20 -18 21 -27 5z"/>
<path d="M7666 6322 c-3 -5 1 -9 9 -9 8 0 12 4 9 9 -3 4 -7 8 -9 8 -2 0 -6 -4
-9 -8z"/>
<path d="M7740 6321 c0 -7 -5 -9 -12 -5 -7 5 -8 3 -3 -5 5 -9 10 -10 18 -2 6
6 8 14 4 18 -4 3 -7 1 -7 -6z"/>
<path d="M7773 6312 c10 -10 14 -22 10 -27 -5 -4 -2 -5 5 -1 11 6 10 12 -4 27
-9 10 -19 19 -22 19 -3 0 2 -8 11 -18z"/>
<path d="M8066 6313 c-6 -14 -5 -15 5 -6 7 7 10 15 7 18 -3 3 -9 -2 -12 -12z"/>
<path d="M7909 6303 c-13 -16 -12 -17 4 -4 9 7 17 15 17 17 0 8 -8 3 -21 -13z"/>
<path d="M8143 6295 c0 -8 4 -12 9 -9 5 3 6 10 3 15 -9 13 -12 11 -12 -6z"/>
<path d="M7664 6292 c4 -3 14 -7 22 -8 9 -1 13 0 10 4 -4 3 -14 7 -22 8 -9 1
-13 0 -10 -4z"/>
<path d="M7811 6286 c-9 -11 -9 -16 1 -22 7 -4 10 -4 6 1 -4 4 -3 14 3 22 6 7
9 13 6 13 -2 0 -10 -6 -16 -14z"/>
<path d="M8019 6283 c-13 -16 -12 -17 4 -4 16 13 21 21 13 21 -2 0 -10 -8 -17
-17z"/>
<path d="M7914 6269 c-3 -6 -2 -15 3 -20 5 -5 9 -1 9 11 0 23 -2 24 -12 9z"/>
<path d="M7996 6243 c-6 -14 -5 -15 5 -6 7 7 10 15 7 18 -3 3 -9 -2 -12 -12z"/>
</g>
</svg>
