<?xml version="1.0" standalone="yes"?>
<svg xmlns="http://www.w3.org/2000/svg" width="698" height="433">
<path style="fill:#ffffff; stroke:none;" d="M0 0L0 433L698 433L698 0L0 0z"/>
<path style="fill:#b5bcc3; stroke:none;" d="M333 90L333 91L338 91L333 90z"/>
<path style="fill:#3771a3; stroke:none;" d="M310 125L348 125L348 130L304 130C295.595 130 286.949 129.587 280.185 135.529C265.621 148.325 265.487 189.269 281.043 201.442C287.642 206.606 297.15 205 305 205C306.924 189.571 303.815 173.441 322 166.711C341.349 159.549 381.725 177.298 385.711 147C387.433 133.91 389.859 108.086 379.895 98.1049C368.497 86.6876 344.534 89.0805 330 91.4383C324.01 92.4101 317.338 94.0078 313.434 99.044C308.282 105.689 310 117.126 310 125z"/>
<path style="fill:#b5bcc3; stroke:none;" d="M358 90L358 91L362 91L358 90M327 91L327 92L330 92L327 91M366 91L366 92L369 92L366 91M323.667 92.3333L324.333 92.6667L323.667 92.3333M371 92L372 93L371 92M320.667 93.3333L321.333 93.6667L320.667 93.3333M373 93L374 94L373 93M318 94L319 95L318 94M375 94L376 95L375 94M316 95L317 96L316 95M377 95L378 96L377 95M315 96L316 97L315 96M378 96L379 97L378 96M314 97L315 98L314 97M379 97L380 98L379 97M313 98L314 99L313 98M380 98L381 99L380 98M312 99L313 100L312 99M381 99L382 100L381 99M382 100L383 101L382 100M311 101L312 102L311 101M325 101L325 102L329 102L325 101M323 102L324 103L323 102z"/>
<path style="fill:#ffffff; stroke:none;" d="M324.109 102.747C316.675 105.789 321.426 117.133 328.945 114.381C336.923 111.461 331.877 99.5684 324.109 102.747z"/>
<path style="fill:#b5bcc3; stroke:none;" d="M330 102L331 103L330 102M383 102L384 103L383 102M331 103L332 104L331 103M310 104L310 108L311 108L310 104M332 104L333 105L332 104M384 104L385 105L384 104M320 105L321 106L320 105M333.333 106.667L333.667 107.333L333.333 106.667M385 106L385 109L386 109L385 106M333.333 109.667L333.667 110.333L333.333 109.667M320 111L321 112L320 111M332 112L333 113L332 112M331 113L332 114L331 113M323 114L324 115L323 114M330 114L331 115L330 114M325 115L325 116L329 116L325 115M294 129L294 130L348 130L330 129L294 129M289.667 130.333L290.333 130.667L289.667 130.333z"/>
<path style="fill:#ffd147; stroke:none;" d="M391 130C391 146.103 389.96 166.165 370 169.671C353.754 172.525 313.28 160.482 311.094 186C310.064 198.025 306.448 226.721 315.214 235.815C329.056 250.176 368.512 250.478 381.606 234.907C387.316 228.116 386 218.234 386 210L348 210L348 205L395 205C401.619 205 409.518 206.298 414.957 201.721C430.658 188.511 431.041 146.436 414.96 133.394C408.563 128.206 398.707 130 391 130z"/>
<path style="fill:#b5bcc3; stroke:none;" d="M286 131L287 132L286 131M284 132L285 133L284 132M282 133L283 134L282 133M281 134L282 135L281 134M277 138L278 139L277 138M276 139L277 140L276 139M275 141L276 142L275 141M274.333 142.667L274.667 143.333L274.333 142.667M273 145L274 146L273 145M272 148L273 149L272 148M385 148L385 151L386 151L385 148M271.333 152.667L271.667 153.333L271.333 152.667M384 153L385 154L384 153M383 155L384 156L383 155M270 157L270 161L271 161L270 157M382 157L383 158L382 157M381 158L382 159L381 158M380 159L381 160L380 159M379 160L380 161L379 160M378 161L379 162L378 161M376 162L377 163L376 162M375 163L376 164L375 163M372 164L373 165L372 164M325 165L325 166L369 166C357.537 161.19 337.48 165 325 165M322 166L323 167L322 166M319 167L320 168L319 167M317 168L318 169L317 168M314 170L315 171L314 170M313 171L314 172L313 171M312 172L313 173L312 172M311 173L312 174L311 173M270 174L270 178L271 178L270 174M310 174L311 175L310 174M309 176L310 177L309 176M308 177L309 178L308 177M307 179L308 180L307 179M271.333 181.667L271.667 182.333L271.333 181.667M306.333 182.667L306.667 183.333L306.333 182.667M272.333 186.667L272.667 187.333L272.333 186.667M305.333 187.667L305.667 188.333L305.333 187.667M273.333 189.667L273.667 190.333L273.333 189.667M305 190L305 193L306 193L305 190M274 192L275 193L274 192M275 194L276 195L275 194M305 194L305 197L306 197L305 194M276 196L277 197L276 196M305 198L305 201L306 201L305 198M278 199L279 200L278 199M279 200L280 201L279 200M280 201L281 202L280 201M282 202L283 203L282 202M305 202C302.041 206.564 294.913 205 290 205L290 206L306 206L305 202M283 203L284 204L283 203M286 204L287 205L286 204z"/>
<path style="fill:#ffffff; stroke:none;" d="M368.015 219.842C358.834 221.505 362.141 235.681 370.956 233.442C378.955 231.411 376.282 218.344 368.015 219.842z"/>
<path style="fill:#b5bcc3; stroke:none;" d="M349.667 263.333L350.333 263.667L349.667 263.333z"/>
<path style="fill:#686a6b; stroke:none;" d="M347 322L353 322C353 314.82 350.254 300.549 354.028 294.329C357.563 288.501 367.106 287.307 370.153 294.04C373.2 300.774 372.01 313.757 371 321L378 322C378 312.514 382.249 288.828 369.996 285.434C364.136 283.81 358.516 286.495 353 288L353 263C345.479 265.029 347 271.459 347 278L347 322z"/>
<path style="fill:#b5bcc3; stroke:none;" d="M353 263L353 288L354 288L353 263M347 264L348 265L347 264M331.667 272.333L332.333 272.667L331.667 272.333M328 273L329 274L328 273z"/>
<path style="fill:#686a6b; stroke:none;" d="M326 285L322 285L322 289L326 289C326 302.505 321.395 322.604 340 323L332.956 313.321L332 290C335.775 289.053 338.686 288.961 340 285C332.086 284.746 332.066 279.701 333 273C325.614 273.832 326.001 278.691 326 285z"/>
<path style="fill:#b5bcc3; stroke:none;" d="M326 274L327 275L326 274M332 274L333 275L332 274M332 276L333 277L332 276M332 278L333 279L332 278M332 280L333 281L332 280M332 282L333 283L332 282M254.667 284.333L255.333 284.667L254.667 284.333z"/>
<path style="fill:#686a6b; stroke:none;" d="M250 342L250 320C256.41 322.468 263.748 324.97 269.906 320.347C281.348 311.756 278.62 286.087 263 284.186C239.588 281.336 244 304.284 244 320C244 327.944 241.114 338.79 250 342z"/>
<path style="fill:#b5bcc3; stroke:none;" d="M265.667 284.333L266.333 284.667L265.667 284.333M287 284L288 285L287 284z"/>
<path style="fill:#686a6b; stroke:none;" d="M309 320C308.993 331.305 304.653 335.236 294 338C296.872 346.57 310.953 337.239 313.347 331.996C319.001 319.617 315 298.447 315 285L309 285C309 292.397 312.027 308.32 307.972 314.606C304.286 320.321 294.356 319.615 291.179 313.895C287.186 306.707 290 292.102 290 284C281.334 286.338 284 296.727 284 304C284 320.594 293.151 326.819 309 320z"/>
<path style="fill:#b5bcc3; stroke:none;" d="M309 284L309 285L315 285L309 284M322 284L322 285L326 285L322 284M333 284L333 285L339 285L333 284M363 284L363 285L369 285L363 284M395 284L396 285L395 284z"/>
<path style="fill:#686a6b; stroke:none;" d="M396 284.558C375.266 289.992 382.185 328.004 405 322.467C426.676 317.206 419.23 278.47 396 284.558z"/>
<path style="fill:#b5bcc3; stroke:none;" d="M405.667 284.333L406.333 284.667L405.667 284.333M434.667 284.333L435.333 284.667L434.667 284.333z"/>
<path style="fill:#686a6b; stroke:none;" d="M424 322L430 322C430 314.509 426.834 297.717 431.028 291.419C435.027 285.413 444.098 288.74 446.821 294.015C450.486 301.115 448 314.132 448 322L454 322C454 313.264 456.967 297.857 452.821 290.043C448.271 281.469 429.885 281.985 425.028 290.213C420.83 297.324 424 313.817 424 322z"/>
<path style="fill:#b5bcc3; stroke:none;" d="M446 284L447 285L446 284M251 285L252 286L251 285M268 285L269 286L268 285M284 285L285 286L284 285M308 285L308 316L309 316L308 285M359.667 285.333L360.333 285.667L359.667 285.333M371 285L372 286L371 285M408 285L409 286L408 285M431 285L432 286L431 285M448 285L449 286L448 285M249 286L250 287L249 286M283 286L283 315L284 315L283 286M357 286L358 287L357 286M373 286L374 287L373 286M391 286L392 287L391 286M429 286L430 287L429 286M450 286L451 287L450 286M247 287L248 288L247 287M355 287L356 288L355 287M374 287L375 288L374 287M411 287L412 288L411 287M427 287L428 288L427 287M451 287L452 288L451 287M245 288L246 289L245 288M256 288L256 289L259 289L256 288z"/>
<path style="fill:#ffffff; stroke:none;" d="M258.999 288.625C246.736 289.071 246.439 318.707 259.999 317.926C273.077 317.172 272.65 288.128 258.999 288.625z"/>
<path style="fill:#b5bcc3; stroke:none;" d="M261.667 288.333L262.333 288.667L261.667 288.333M339 288L340 289L339 288M375 288L376 289L375 288M398 288L398 289L403 289L398 288M412 288L413 289L412 288M425 288L426 289L425 288M435.667 288.333L436.333 288.667L435.667 288.333M440.667 288.333L441.333 288.667L440.667 288.333M452 288L453 289L452 288M244 289L245 290L244 289M253 289L254 290L253 289M264 289L265 290L264 289M360.667 289.333L361.333 289.667L360.667 289.333M366 289L367 290L366 289M396 289L397 290L396 289z"/>
<path style="fill:#ffffff; stroke:none;" d="M397.019 289.742C385.79 294.179 389.788 323.637 403.957 318.103C415.855 313.455 412.303 283.703 397.019 289.742z"/>
<path style="fill:#b5bcc3; stroke:none;" d="M413 289L414 290L413 289M424 289L425 290L424 289M432 289L433 290L432 289M251 290L252 291L251 290M273 290L274 291L273 290M332 290L333 291L332 290M358 290L359 291L358 290M368 290L369 291L368 290M376 290L377 291L376 290M394 290L395 291L394 290M406 290L407 291L406 290M414 290L415 291L414 290M423 290L423 323L430 323L430 322L424 322L423 290M430 290L431 291L430 290M453 290L454 291L453 290M250 291L250 316L251 316L250 291M266 291L267 292L266 291M356 291L357 292L356 291M386 291L387 292L386 291M393 291L394 292L393 291M407 291L408 292L407 291M274 292L275 293L274 292M332 292L333 293L332 292M377 292L377 295L378 295L377 292M408 292L409 293L408 292M415 292L416 293L415 292M446 292L447 293L446 292M267 293L268 294L267 293M353 293L353 322L354 322L353 293M370.333 293.667L370.667 294.333L370.333 293.667M385 293L386 294L385 293M275.333 294.667L275.667 295.333L275.333 294.667M332 294L333 295L332 294M409 294L410 295L409 294M416 294L417 295L416 294M447 294L447 322L448 322L447 294M268.333 295.667L268.667 296.333L268.333 295.667M384 295L385 296L384 295M391 295L392 296L391 295M332 296L333 297L332 296M410 297L410 300L411 300L410 297M417.333 297.667L417.667 298.333L417.333 297.667M276 298L276 301L277 301L276 298M332 298L333 299L332 298M383 298L383 308L384 308L383 298M390 298L390 307L391 307L390 298M371 299L372 300L371 299M332 300L333 301L332 300M371 301L372 302L371 301M269 302L269 305L270 305L269 302M332 302L333 303L332 302M371 303L372 304L371 303M332 304L333 305L332 304M371 305L372 306L371 305M332 306L333 307L332 306M276 307L276 310L277 310L276 307M371 307L372 308L371 307M410 307L410 310L411 310L410 307M332 308L333 309L332 308M417.333 308.667L417.667 309.333L417.333 308.667M371 309L372 310L371 309M268.333 310.667L268.667 311.333L268.333 310.667M332 310L333 311L332 310M384.333 310.667L384.667 311.333L384.333 310.667M391.333 310.667L391.667 311.333L391.333 310.667M371 311L372 312L371 311M416.333 311.667L416.667 312.333L416.333 311.667M275 312L276 313L275 312M332 312L333 313L332 312M409 312L410 313L409 312M267 313L268 314L267 313M290 313L291 314L290 313M371 313L372 314L371 313M385 313L386 314L385 313M392 313L393 314L392 313M408 314L409 315L408 314M415 314L416 315L415 314M266 315L267 316L266 315M291 315L292 316L291 315M326.333 315.667L326.667 316.333L326.333 315.667M371 315L372 316L371 315M386 315L387 316L386 315M393 315L394 316L393 315M252 316L253 317L252 316M265 316L266 317L265 316M273 316L274 317L273 316M284 316L285 317L284 316M292 316L293 317L292 316M306 316L307 317L306 316M333 316L334 317L333 316M394 316L395 317L394 316M254 317L255 318L254 317M264 317L265 318L264 317M294 317L295 318L294 317M304 317L305 318L304 317M371 317L372 318L371 317M395 317L396 318L395 317M413 317L414 318L413 317M257 318L257 319L262 319L257 318M285 318L286 319L285 318M296 318L296 319L302 319L296 318M327 318L328 319L327 318M335 318L336 319L335 318M397 318L398 319L397 318M403.667 318.333L404.333 318.667L403.667 318.333M412 318L413 319L412 318M286 319L287 320L286 319M338.667 319.333L339.333 319.667L338.667 319.333M371 319L372 320L371 319M411 319L412 320L411 319M250 320L250 342L251 342L252 320L250 320M287 320L288 321L287 320M308 320L309 321L308 320M391 320L392 321L391 320M253 321L254 322L253 321M268 321L269 322L268 321M289 321L290 322L289 321M305.667 321.333L306.333 321.667L305.667 321.333M330 321L331 322L330 321M371 321L378 323L378 322L371 321M392 321L393 322L392 321M408 321L409 322L408 321M255.667 322.333L256.333 322.667L255.667 322.333M266 322L267 323L266 322M291 322L292 323L291 322M301.667 322.333L302.333 322.667L301.667 322.333M332.667 322.333L333.333 322.667L332.667 322.333M347 322L347 323L353 323L347 322M395 322L396 323L395 322M405.667 322.333L406.333 322.667L405.667 322.333M448 322L448 323L454 323L448 322M259 323L259 324L263 324L259 323M400 323L401 324L400 323M308 327L308 330L309 330L308 327M314.333 328.667L314.667 329.333L314.333 328.667M307 331L308 332L307 331M313 332L314 333L313 332M312 334L313 335L312 334M303 335L304 336L303 335M311 335L312 336L311 335M299.667 336.333L300.333 336.667L299.667 336.333M310 336L311 337L310 336M294.667 337.333L295.333 337.667L294.667 337.333M309 337L310 338L309 337M293 338L294 339L293 338M307 338L308 339L307 338M305 339L306 340L305 339M245 340L246 341L245 340M302.667 340.333L303.333 340.667L302.667 340.333M248 341L249 342L248 341M294 341L295 342L294 341M298.667 341.333L299.333 341.667L298.667 341.333z"/>
</svg>
