<?xml version="1.0" standalone="no"?>
<!DOCTYPE svg PUBLIC "-//W3C//DTD SVG 20010904//EN"
 "http://www.w3.org/TR/2001/REC-SVG-20010904/DTD/svg10.dtd">
<svg version="1.0" xmlns="http://www.w3.org/2000/svg"
 width="318.000000pt" height="159.000000pt" viewBox="0 0 318.000000 159.000000"
 preserveAspectRatio="xMidYMid meet">

<g transform="translate(0.000000,159.000000) scale(0.100000,-0.100000)"
fill="#000000" stroke="none">
<path d="M2438 643 c6 -2 9 -10 6 -15 -4 -7 -2 -8 5 -4 13 9 5 26 -12 25 -9 0
-8 -2 1 -6z"/>
<path d="M1176 617 c3 -10 9 -15 12 -12 3 3 0 11 -7 18 -10 9 -11 8 -5 -6z"/>
<path d="M1742 606 c1 -14 5 -23 9 -20 7 4 0 44 -7 44 -2 0 -3 -11 -2 -24z"/>
<path d="M1419 581 c13 -12 28 -21 34 -21 12 0 11 0 -28 24 l-30 17 24 -20z"/>
<path d="M2517 578 c2 -5 10 -8 18 -8 8 0 16 3 18 8 3 4 -5 7 -18 7 -13 0 -21
-3 -18 -7z"/>
<path d="M695 570 c3 -5 8 -10 11 -10 2 0 4 5 4 10 0 6 -5 10 -11 10 -5 0 -7
-4 -4 -10z"/>
<path d="M2829 563 c-13 -16 -12 -17 4 -4 16 13 21 21 13 21 -2 0 -10 -8 -17
-17z"/>
<path d="M2597 559 c7 -7 15 -10 18 -7 3 3 -2 9 -12 12 -14 6 -15 5 -6 -5z"/>
<path d="M1226 547 c3 -10 9 -15 12 -12 3 3 0 11 -7 18 -10 9 -11 8 -5 -6z"/>
<path d="M3013 554 c3 -4 2 -16 -4 -28 -10 -20 -10 -20 5 -2 19 24 20 36 4 36
-6 0 -8 -3 -5 -6z"/>
<path d="M734 522 c17 -18 34 -32 38 -32 10 0 -17 28 -47 50 -11 8 -7 0 9 -18z"/>
<path d="M2979 533 c-13 -16 -12 -17 4 -4 16 13 21 21 13 21 -2 0 -10 -8 -17
-17z"/>
<path d="M275 510 c10 -11 20 -20 23 -20 3 0 -3 9 -13 20 -10 11 -20 20 -23
20 -3 0 3 -9 13 -20z"/>
<path d="M1874 510 c0 -11 4 -20 8 -20 4 0 8 9 8 20 0 11 -4 20 -8 20 -4 0 -8
-9 -8 -20z"/>
<path d="M2380 515 c7 -8 16 -12 21 -9 16 9 10 20 -12 21 -17 2 -18 -1 -9 -12z"/>
<path d="M665 479 c10 -10 22 -16 27 -13 12 8 -6 27 -28 30 -14 2 -14 0 1 -17z"/>
<path d="M588 483 c7 -3 16 -2 19 1 4 3 -2 6 -13 5 -11 0 -14 -3 -6 -6z"/>
<path d="M1300 482 c0 -10 70 -56 75 -50 2 2 -14 16 -36 31 -21 16 -39 24 -39
19z"/>
<path d="M825 432 c27 -29 56 -51 65 -51 11 1 11 2 -3 6 -9 2 -14 9 -11 15 4
7 2 8 -4 4 -7 -4 -12 -3 -12 3 0 5 -19 24 -42 42 l-43 32 50 -51z"/>
<path d="M1835 470 c-16 -7 -17 -9 -3 -9 9 -1 20 4 23 9 7 11 7 11 -20 0z"/>
<path d="M2451 467 c2 -1 13 -9 24 -17 19 -14 19 -14 6 3 -7 9 -18 17 -24 17
-6 0 -8 -1 -6 -3z"/>
<path d="M1638 453 c6 -2 18 -2 25 0 6 3 1 5 -13 5 -14 0 -19 -2 -12 -5z"/>
<path d="M1790 449 c0 -5 5 -7 10 -4 6 3 10 8 10 11 0 2 -4 4 -10 4 -5 0 -10
-5 -10 -11z"/>
<path d="M2910 444 c0 -14 3 -14 15 -4 8 7 15 14 15 16 0 2 -7 4 -15 4 -8 0
-15 -7 -15 -16z"/>
<path d="M374 438 c12 -7 21 -7 28 0 6 6 0 10 -18 10 -23 0 -24 -2 -10 -10z"/>
<path d="M2875 440 c3 -6 -4 -14 -17 -19 l-23 -10 23 0 c12 -1 22 4 22 10 0 5
6 7 13 3 8 -5 8 -2 -2 9 -15 18 -26 23 -16 7z"/>
<path d="M479 438 c-8 -29 -5 -38 14 -38 21 1 21 1 2 12 -19 11 -19 11 0 19
17 7 18 8 3 8 -10 1 -18 0 -19 -1z"/>
<path d="M668 433 c7 -3 16 -2 19 1 4 3 -2 6 -13 5 -11 0 -14 -3 -6 -6z"/>
<path d="M1468 433 c7 -3 16 -2 19 1 4 3 -2 6 -13 5 -11 0 -14 -3 -6 -6z"/>
<path d="M2553 426 c2 -6 32 -12 67 -12 38 -1 66 -6 68 -13 4 -13 32 -15 32
-2 0 5 -24 14 -52 20 -89 17 -119 18 -115 7z"/>
<path d="M427 419 c7 -7 15 -10 18 -7 3 3 -2 9 -12 12 -14 6 -15 5 -6 -5z"/>
<path d="M700 425 c0 -7 30 -13 34 -7 3 4 -4 9 -15 9 -10 1 -19 0 -19 -2z"/>
<path d="M1393 423 c4 -3 21 -7 38 -9 18 -2 30 -1 27 2 -3 3 -20 7 -38 9 -18
3 -30 2 -27 -2z"/>
<path d="M2073 420 c3 -11 23 -16 85 -18 45 -2 82 1 82 6 0 5 -34 7 -76 4 -58
-4 -78 -1 -86 9 -8 12 -9 11 -5 -1z"/>
<path d="M665 410 c-3 -5 -1 -10 4 -10 6 0 11 5 11 10 0 6 -2 10 -4 10 -3 0
-8 -4 -11 -10z"/>
<path d="M1655 410 c-3 -5 1 -10 9 -10 9 0 16 5 16 10 0 6 -4 10 -9 10 -6 0
-13 -4 -16 -10z"/>
<path d="M1698 413 c7 -3 16 -2 19 1 4 3 -2 6 -13 5 -11 0 -14 -3 -6 -6z"/>
<path d="M2808 403 c7 -3 16 -2 19 1 4 3 -2 6 -13 5 -11 0 -14 -3 -6 -6z"/>
<path d="M958 395 c-4 -6 -3 -17 2 -24 6 -11 14 -11 36 -2 l29 11 -27 -3 c-19
-3 -28 1 -30 12 -2 10 -6 12 -10 6z"/>
<path d="M1538 393 c12 -2 32 -2 45 0 12 2 2 4 -23 4 -25 0 -35 -2 -22 -4z"/>
</g>
</svg>
