<?xml version="1.0" standalone="no"?>
<!DOCTYPE svg PUBLIC "-//W3C//DTD SVG 20010904//EN"
 "http://www.w3.org/TR/2001/REC-SVG-20010904/DTD/svg10.dtd">
<svg version="1.0" xmlns="http://www.w3.org/2000/svg"
 width="1000.000000pt" height="667.000000pt" viewBox="0 0 1000.000000 667.000000"
 preserveAspectRatio="xMidYMid meet">

<g transform="translate(0.000000,667.000000) scale(0.100000,-0.100000)"
fill="#000000" stroke="none">
<path d="M3766 6173 c-5 -12 -10 -13 -18 -5 -13 13 -67 5 -89 -14 -8 -8 -21
-14 -27 -14 -17 0 -15 -17 3 -24 27 -10 18 -44 -15 -51 -36 -8 -50 0 -50 26 0
23 -13 25 -30 4 -7 -8 -27 -15 -45 -15 -18 0 -43 -8 -56 -19 -21 -17 -22 -21
-9 -36 13 -15 12 -19 -5 -31 -24 -18 -39 -18 -55 1 -7 8 -20 15 -30 15 -10 0
-23 -7 -30 -15 -7 -9 -29 -15 -51 -15 -34 0 -39 -3 -39 -23 0 -24 -43 -57 -74
-57 -9 0 -16 -4 -16 -9 0 -5 -15 -12 -34 -15 -19 -4 -36 -13 -39 -20 -6 -15
-92 -48 -101 -38 -3 3 -6 14 -6 24 0 22 -28 24 -36 3 -4 -9 -14 -13 -28 -10
-31 7 -53 -9 -38 -28 19 -22 4 -47 -29 -47 -18 0 -32 7 -39 21 -11 19 -13 19
-29 5 -10 -9 -31 -16 -48 -16 -33 0 -50 -29 -29 -50 14 -15 -26 -50 -58 -50
-19 0 -21 4 -18 36 3 28 1 35 -9 32 -8 -3 -14 -18 -14 -34 0 -18 -6 -32 -17
-36 -13 -5 -18 -19 -18 -47 0 -46 -10 -57 -33 -33 -42 44 -45 45 -85 14 -20
-16 -48 -32 -62 -36 -14 -4 -39 -15 -56 -23 -31 -16 -33 -15 -105 22 -41 20
-81 44 -90 51 -8 8 -22 14 -30 14 -8 0 -19 4 -25 9 -5 5 -34 22 -64 38 -79 43
-199 111 -239 135 -67 42 -107 41 -351 -12 -30 -6 -82 -16 -115 -22 -33 -5
-67 -13 -75 -18 -9 -4 -43 -11 -76 -15 -45 -5 -70 -2 -102 10 -29 12 -58 15
-99 12 -95 -9 -213 -30 -213 -38 0 -4 -28 -10 -62 -14 -89 -9 -98 -13 -98 -41
0 -66 89 -90 295 -79 124 6 131 6 149 -14 17 -18 31 -21 108 -21 52 0 88 -4
88 -10 0 -5 -15 -10 -34 -10 -19 0 -38 -4 -41 -10 -9 -15 -36 -12 -57 6 -14
13 -25 15 -50 8 l-33 -10 -3 -78 c-2 -62 1 -82 14 -97 34 -37 -27 -67 -70 -34
-21 16 -21 17 10 33 31 16 30 68 -3 98 -15 14 -32 23 -39 20 -7 -3 -14 -1 -16
4 -4 13 -109 24 -151 16 -26 -5 -38 -14 -47 -36 -6 -15 -18 -31 -26 -34 -8 -3
-14 -12 -14 -21 0 -10 -10 -15 -28 -15 -37 0 -52 -17 -52 -56 l0 -32 65 -1
c36 0 70 -3 76 -6 17 -11 -1 -24 -45 -30 -57 -9 -66 -15 -78 -61 -19 -75 -21
-106 -7 -115 16 -11 139 -1 155 12 6 5 51 10 100 11 77 2 92 5 113 25 17 17
22 29 17 48 -8 30 3 77 15 69 5 -3 9 -29 9 -57 0 -32 6 -62 16 -75 9 -13 13
-26 9 -30 -4 -4 -52 -8 -108 -9 -174 -2 -178 -3 -172 -13 3 -6 -6 -11 -22 -11
-126 -7 -141 -12 -149 -53 -3 -19 -3 -61 0 -93 7 -74 7 -88 0 -146 -3 -26 -3
-68 1 -93 5 -38 9 -44 23 -38 9 4 25 6 35 5 32 -3 61 -1 173 8 80 7 120 15
145 30 37 22 49 19 67 -16 17 -31 -2 -35 -146 -33 -96 1 -126 -2 -137 -14 -10
-10 -36 -15 -81 -15 -36 0 -68 -1 -70 -3 -5 -6 -8 -76 -6 -137 2 -51 3 -53 26
-47 27 7 56 -1 56 -15 0 -5 -16 -9 -35 -9 -42 0 -55 -24 -55 -98 0 -77 8 -92
46 -92 31 0 61 -19 32 -21 -18 -1 -61 -9 -64 -12 -5 -5 -6 -36 -5 -105 1 -72
1 -73 31 -78 34 -7 31 -24 -4 -24 -27 0 -36 -29 -36 -110 0 -58 7 -80 26 -80
19 0 18 -16 -1 -24 -12 -4 -15 -24 -15 -90 l0 -85 60 -12 c33 -6 59 -13 58
-15 -2 -1 -21 -5 -43 -8 -75 -9 -75 -9 -75 -102 l0 -84 80 0 c64 0 80 -3 80
-15 0 -12 -13 -15 -57 -15 -104 0 -104 -1 -102 -91 2 -88 -6 -81 106 -94 56
-7 72 -25 46 -51 -12 -11 -27 -15 -55 -11 -21 3 -47 3 -58 0 -19 -5 -19 -8 -7
-27 8 -12 14 -40 14 -64 0 -30 6 -47 18 -56 24 -17 11 -36 -25 -36 -18 0 -33
-7 -38 -17 -12 -24 -2 -154 12 -158 6 -2 23 -6 38 -9 l28 -6 -21 -21 c-15 -15
-19 -28 -15 -45 4 -13 9 -45 13 -72 3 -26 11 -50 17 -55 15 -10 -21 -37 -49
-37 -36 0 -45 -20 -45 -96 0 -94 4 -104 46 -104 26 0 34 -4 34 -17 0 -10 3
-48 6 -85 7 -77 -4 -101 -45 -96 -34 4 -51 -30 -51 -107 -1 -72 -22 -167 -38
-173 -18 -6 -14 -26 8 -40 11 -7 20 -19 20 -26 0 -8 5 -16 11 -18 7 -2 7 -12
1 -29 -6 -16 -7 -31 -1 -42 14 -24 0 -137 -17 -137 -15 0 -44 -27 -44 -41 0
-5 19 -10 43 -10 68 -2 97 -12 110 -39 15 -30 61 -37 306 -45 147 -5 165 -7
180 -25 17 -22 72 -36 191 -51 41 -5 85 -13 98 -19 13 -5 34 -10 47 -10 21 0
25 -5 25 -30 0 -40 26 -40 68 1 30 30 36 31 93 27 37 -3 64 -10 69 -18 12 -19
3 -30 -24 -30 -13 0 -29 -6 -35 -14 -28 -34 123 -45 172 -12 22 15 37 17 82
11 58 -7 81 -23 46 -32 -28 -7 -26 -15 9 -35 22 -12 30 -14 30 -5 0 25 21 35
53 27 18 -5 64 -11 104 -14 70 -6 136 -26 148 -45 3 -6 12 -8 20 -4 8 3 15 1
15 -3 0 -11 71 -34 104 -34 14 0 28 5 31 10 8 13 52 13 57 0 2 -6 14 -12 26
-15 20 -3 22 -2 12 10 -7 8 -19 15 -27 15 -10 0 -13 6 -9 16 3 9 6 18 6 20 0
2 7 4 16 4 11 0 14 -6 9 -20 -7 -24 7 -26 25 -5 16 19 39 19 64 0 19 -15 19
-15 -2 -15 -26 0 -29 -21 -4 -36 22 -14 62 0 62 21 0 8 9 15 20 15 13 0 20 7
20 20 0 10 -9 24 -20 30 -21 11 -27 30 -10 30 6 0 21 9 32 20 12 11 27 19 33
17 5 -2 13 -31 16 -65 3 -34 12 -68 19 -77 7 -8 10 -24 7 -35 -4 -14 0 -20 12
-20 26 0 84 21 102 37 9 8 34 19 55 25 21 5 43 17 49 24 14 19 84 21 96 3 8
-11 9 -9 6 6 -2 11 -9 19 -15 18 -7 -2 -12 0 -12 3 0 41 147 119 233 123 33 1
58 -2 62 -9 5 -8 14 -5 30 10 13 12 28 19 34 16 12 -8 58 12 94 41 16 13 33
23 39 23 28 0 118 54 118 70 0 12 11 19 38 24 42 7 92 46 92 72 0 9 8 23 18
30 15 12 15 13 0 14 -9 0 -18 4 -20 10 -1 5 -32 15 -68 22 -61 12 -65 15 -68
43 -2 17 -9 37 -16 45 -8 8 -16 27 -20 43 -7 30 -21 35 -30 12 -6 -17 -26 -20
-26 -4 0 6 -9 23 -21 37 -18 24 -19 28 -5 38 9 6 16 16 16 23 0 6 8 11 18 11
11 0 27 9 37 20 15 17 26 20 61 14 36 -5 44 -3 58 17 8 13 14 25 12 27 -6 5
-37 10 -73 11 -24 1 -33 6 -33 17 0 15 12 16 108 10 59 -4 158 -14 221 -22 62
-7 116 -12 120 -10 3 2 19 -1 35 -8 28 -11 28 -12 11 -30 -18 -18 -30 -18 -99
0 -26 6 -27 5 -20 -22 4 -16 7 -30 8 -31 6 -8 51 -3 96 11 30 9 90 19 132 23
88 7 108 -2 108 -48 0 -34 1 -34 57 -13 32 13 43 23 48 45 l6 29 67 -5 c37 -3
121 -10 187 -16 141 -12 238 -7 392 21 87 16 117 18 133 10 14 -8 18 -15 12
-23 -12 -17 -15 -94 -3 -101 6 -4 13 9 17 28 3 20 12 40 19 46 8 6 22 42 31
79 13 49 23 70 38 77 12 5 20 16 18 25 -1 9 9 21 23 27 24 11 25 14 20 79 -3
38 -10 80 -16 96 -10 25 -16 27 -65 27 -66 0 -73 11 -75 107 l-2 68 -14 -76
c-12 -65 -19 -78 -40 -88 -13 -6 -28 -9 -32 -7 -4 3 -70 6 -147 6 -76 1 -189
6 -250 11 -61 5 -155 9 -209 10 -56 1 -101 7 -106 13 -44 55 -84 96 -94 96 -6
0 -20 -18 -31 -40 -12 -25 -28 -43 -42 -46 -40 -11 -105 3 -122 26 -12 16 -22
20 -42 15 -21 -6 -26 -3 -32 19 -6 22 -12 26 -46 26 -34 0 -41 -4 -46 -24 -3
-14 -13 -27 -22 -31 -9 -3 -69 -3 -133 1 l-116 7 -14 33 c-15 40 -33 43 -84
14 -35 -20 -71 -18 -58 4 4 6 -5 3 -21 -7 -31 -20 -43 -20 -181 7 -55 10 -85
21 -97 36 -9 11 -22 20 -30 21 -7 0 -35 13 -63 27 -39 21 -51 33 -55 57 -4 22
-11 31 -28 33 -16 3 -22 8 -18 18 3 8 1 45 -5 82 -5 37 -12 148 -15 247 -3 99
-7 185 -9 192 -3 8 -21 10 -58 6 -43 -4 -55 -2 -60 10 -4 11 2 17 22 22 33 7
43 37 34 101 -4 35 -11 44 -49 67 l-44 27 -2 67 c-2 38 -3 102 -4 143 0 41 -1
89 -2 106 l-2 31 -82 6 c-96 7 -194 34 -205 56 -8 18 -11 263 -12 901 0 743 2
698 -29 726 -15 13 -34 24 -43 24 -23 0 -57 32 -73 71 -9 19 -15 26 -16 17 0
-23 -25 -22 -67 0 -25 13 -30 21 -23 32 16 25 11 33 -14 26 -15 -4 -28 0 -36
9 -11 13 -7 15 26 14 22 -1 44 0 49 1 6 2 22 0 37 -4 15 -5 35 -3 48 4 17 9
25 9 39 -4 16 -15 20 -14 52 9 19 13 45 30 59 36 48 22 125 51 159 59 18 5 38
13 44 19 6 6 20 11 32 11 11 0 29 7 39 15 11 8 28 15 37 15 10 0 32 7 51 16
76 38 90 44 106 44 9 0 31 9 47 20 17 11 38 20 48 20 9 0 17 5 17 10 0 6 10
10 23 10 12 0 35 7 51 15 15 8 33 15 38 15 5 0 28 8 51 19 23 10 51 21 62 26
19 7 19 7 -3 16 -13 5 -22 15 -20 21 6 21 79 52 95 42 24 -15 20 -29 -9 -32
-16 -2 -28 -8 -28 -13 0 -14 34 -11 66 6 16 8 37 15 48 15 14 0 17 5 12 23 -6
24 4 33 74 69 38 20 80 24 80 8 0 -6 -7 -13 -15 -16 -8 -4 -13 -10 -10 -14 9
-14 97 23 106 45 14 33 33 51 64 62 17 5 31 16 33 24 2 12 -9 14 -63 11 -61
-4 -67 -2 -72 17 -6 25 -38 28 -47 4z m-545 -348 c-1 -15 -24 -12 -29 3 -3 9
2 13 12 10 10 -1 17 -7 17 -13z m-101 -30 c0 -8 -8 -15 -19 -15 -10 0 -24 -7
-31 -15 -14 -17 -46 -20 -54 -6 -8 12 53 49 82 50 13 1 22 -5 22 -14z m-190
-64 c0 -16 -28 -32 -65 -38 -30 -5 -37 -3 -33 8 2 8 18 15 34 17 16 2 33 8 39
13 12 11 25 12 25 0z m-1239 -81 c23 -13 24 -28 5 -49 -14 -15 -18 -82 -16
-221 1 -61 -1 -70 -15 -70 -7 0 -16 12 -19 26 -7 26 -9 26 -63 20 -31 -4 -62
-11 -69 -17 -7 -6 -34 -9 -61 -7 -46 3 -47 4 -22 15 15 6 29 19 32 27 5 12 20
16 56 16 79 0 156 48 101 63 -17 4 -20 14 -20 70 l0 64 -46 7 c-26 3 -60 6
-77 6 -47 0 -25 11 71 36 101 26 116 28 143 14z m1049 -5 c0 -10 -11 -15 -35
-15 -54 0 -43 27 13 29 13 1 22 -5 22 -14z m-1168 -87 c-7 -7 -12 -8 -12 -2 0
14 12 26 19 19 2 -3 -1 -11 -7 -17z m-52 -58 c0 -17 -5 -30 -12 -30 -7 -1 0
-7 17 -14 l30 -12 -25 -7 c-14 -4 -54 -10 -90 -13 l-65 -6 33 31 c33 31 39 45
22 56 -20 13 2 25 46 25 42 0 44 -1 44 -30z m-255 -30 c8 0 15 -6 15 -14 0 -7
7 -19 15 -26 20 -17 2 -40 -32 -40 -20 0 -24 4 -20 20 4 16 0 20 -18 20 -13 0
-25 -6 -28 -12 -3 -9 -7 -7 -12 5 -11 25 1 47 27 48 17 1 18 2 6 6 -10 2 -18
9 -18 15 0 6 11 3 25 -6 13 -9 31 -16 40 -16z m-452 -151 c30 -1 31 -1 7 -8
-58 -18 -100 -20 -100 -6 0 15 27 25 48 19 8 -2 28 -4 45 -5z m315 -6 c2 -9
-7 -13 -27 -13 -30 0 -46 11 -34 24 11 11 56 2 61 -11z m539 -161 c-9 -2 -27
-2 -39 1 -23 4 -23 4 2 14 18 8 29 8 39 -1 12 -9 12 -11 -2 -14z m-122 -22
c-3 -5 -19 -10 -36 -10 -16 0 -29 5 -29 10 0 6 16 10 36 10 21 0 33 -4 29 -10z
m-415 -30 c12 -8 12 -10 -3 -16 -9 -3 -14 -11 -10 -17 3 -5 2 -8 -3 -6 -5 3
-21 11 -36 18 -15 8 -25 18 -22 23 7 11 55 10 74 -2z m-150 -106 c0 -8 -4 -12
-10 -9 -5 3 -10 13 -10 21 0 8 5 12 10 9 6 -3 10 -13 10 -21z m6 -70 c16 -39
11 -74 -12 -74 -8 0 -14 4 -14 10 0 5 -15 13 -32 18 l-33 9 33 7 c27 6 32 12
32 37 0 39 8 37 26 -7z m669 -4 c4 -6 -5 -10 -20 -10 -15 0 -24 4 -20 10 3 6
12 10 20 10 8 0 17 -4 20 -10z m-782 -37 c-7 -2 -19 -2 -25 0 -7 3 -2 5 12 5
14 0 19 -2 13 -5z m257 -20 c6 -5 -21 -23 -35 -23 -19 0 -38 18 -31 29 6 10
52 6 66 -6z m-331 -9 c2 -2 -34 -4 -80 -3 -57 1 -76 4 -59 9 23 7 129 2 139
-6z m-179 -4 c0 -5 -7 -10 -16 -10 -8 0 -12 5 -9 10 3 6 10 10 16 10 5 0 9 -4
9 -10z m510 -210 c0 -13 -60 -13 -80 0 -11 7 -2 10 33 10 26 0 47 -4 47 -10z
m55 0 c3 -5 -1 -10 -9 -10 -9 0 -16 5 -16 10 0 6 4 10 9 10 6 0 13 -4 16 -10z
m-211 -87 c-9 -52 -14 -54 -14 -5 0 23 5 42 10 42 7 0 8 -14 4 -37z m6 -88 c5
-14 15 -25 22 -25 7 0 1 -8 -12 -17 -14 -10 -29 -16 -35 -14 -5 2 -62 3 -127
2 -64 -1 -119 2 -122 7 -7 12 136 35 172 27 22 -4 39 -2 54 9 12 9 19 16 15
16 -5 0 -5 5 -2 10 11 17 25 11 35 -15z m533 -32 c-7 -2 -19 -2 -25 0 -7 3 -2
5 12 5 14 0 19 -2 13 -5z m-418 -13 c-3 -5 -12 -7 -20 -3 -21 7 -19 13 6 13
11 0 18 -4 14 -10z m-375 -1426 c0 -39 -11 -54 -40 -54 -11 0 -24 85 -17 104
5 12 11 12 31 3 22 -10 26 -19 26 -53z m149 45 c31 -11 51 -41 51 -75 0 -12
-12 -14 -57 -12 l-58 3 -3 48 c-3 53 5 57 67 36z m2171 -89 c0 -22 -4 -40 -9
-40 -5 0 -8 18 -7 40 0 22 4 40 8 40 5 0 8 -18 8 -40z m-1282 -102 c-3 -7 -15
-13 -28 -13 -13 0 -25 6 -27 13 -3 8 6 12 27 12 21 0 30 -4 28 -12z m532 -22
c0 -3 -4 -8 -10 -11 -5 -3 -10 -1 -10 4 0 6 5 11 10 11 6 0 10 -2 10 -4z m744
-82 c25 -9 19 -24 -9 -24 -16 0 -25 6 -25 15 0 16 9 19 34 9z m-2344 -84 c0
-5 -4 -10 -10 -10 -5 0 -10 5 -10 10 0 6 5 10 10 10 6 0 10 -4 10 -10z m193
-12 c31 -15 42 -39 33 -73 -6 -24 -31 -35 -83 -35 -33 0 -33 1 -33 47 0 31 6
52 18 64 18 19 20 19 65 -3z m-176 -42 c32 -36 38 -65 16 -72 -10 -3 -26 -10
-37 -16 -23 -12 -37 6 -31 39 3 13 7 34 10 48 7 31 16 31 42 1z m1328 4 c-3
-5 -13 -10 -21 -10 -8 0 -14 5 -14 10 0 6 9 10 21 10 11 0 17 -4 14 -10z
m1045 -5 c0 -11 -11 -15 -36 -15 -21 0 -33 4 -29 10 4 6 11 8 16 5 5 -4 9 -1
9 4 0 6 9 11 20 11 11 0 20 -7 20 -15z m-6 -54 c3 -5 -1 -12 -10 -15 -27 -10
-44 -7 -44 9 0 16 45 21 54 6z m576 -241 c0 -5 -5 -10 -11 -10 -5 0 -7 5 -4
10 3 6 8 10 11 10 2 0 4 -4 4 -10z m-2919 -70 c27 -15 27 -89 -1 -113 -27 -23
-80 -23 -81 1 -3 29 3 107 8 115 6 10 51 9 74 -3z m168 -9 c13 -3 27 -16 32
-28 11 -31 -19 -53 -85 -60 l-56 -6 0 36 c0 56 8 67 49 66 20 -1 47 -4 60 -8z
m2536 -401 c-3 -5 -10 -10 -16 -10 -5 0 -9 5 -9 10 0 6 7 10 16 10 8 0 12 -4
9 -10z m-19 -97 c-11 -11 -19 6 -11 24 8 17 8 17 12 0 3 -10 2 -21 -1 -24z
m130 25 c4 -6 -1 -17 -12 -25 -15 -11 -19 -11 -27 2 -15 28 22 51 39 23z m-42
-234 c20 -8 21 -54 2 -54 -20 0 -39 27 -32 45 6 17 8 17 30 9z m200 -13 c3 -5
-1 -11 -9 -15 -9 -3 -15 0 -15 9 0 16 16 20 24 6z m-2115 -112 c-19 -12 -24
-2 -8 17 9 11 14 13 17 4 3 -7 -2 -16 -9 -21z m-69 -103 c0 -11 -15 -14 -65
-14 -55 0 -64 3 -54 14 16 20 119 19 119 0z m800 -76 c0 -5 7 -10 15 -10 9 0
15 -7 13 -17 -2 -10 8 -23 24 -32 24 -14 32 -13 90 7 35 12 66 22 70 22 5 0
-8 -21 -28 -47 -28 -37 -43 -48 -66 -49 -16 -1 -32 4 -36 11 -9 16 -67 35
-106 35 l-31 1 28 17 c33 20 35 45 5 60 l-23 11 23 0 c12 1 22 -3 22 -9z"/>
<path d="M4000 6165 c0 -3 9 -16 20 -27 16 -17 23 -19 32 -10 8 8 8 15 3 21
-13 11 -55 24 -55 16z"/>
<path d="M2522 5991 c15 -25 35 -34 44 -20 8 13 -4 25 -34 34 -21 6 -22 5 -10
-14z"/>
<path d="M3645 5980 c3 -5 17 -10 31 -10 13 0 24 5 24 10 0 6 -14 10 -31 10
-17 0 -28 -4 -24 -10z"/>
<path d="M2481 5724 c0 -11 3 -14 6 -6 3 7 2 16 -1 19 -3 4 -6 -2 -5 -13z"/>
<path d="M3678 3965 c-149 -41 -220 -162 -173 -296 26 -73 88 -117 268 -188
165 -66 202 -96 202 -166 0 -84 -65 -135 -171 -135 -63 0 -113 16 -150 47 -16
14 -68 80 -80 101 -1 1 -26 -12 -57 -30 l-56 -32 17 -29 c29 -51 94 -109 152
-136 44 -20 74 -26 156 -29 94 -4 106 -2 163 23 102 46 154 123 153 227 0 114
-65 187 -217 248 -44 17 -98 40 -120 50 -22 10 -49 20 -61 24 -35 11 -75 61
-81 102 -4 31 0 45 18 68 69 87 228 71 301 -30 17 -24 35 -44 40 -44 5 0 31
12 59 26 l50 26 -17 27 c-83 130 -241 189 -396 146z"/>
<path d="M6685 3956 l-40 -13 -3 -154 c-1 -85 -5 -160 -7 -168 -4 -10 -16 -1
-41 28 -46 54 -81 71 -144 71 -64 0 -107 -18 -145 -61 -131 -148 -100 -484 52
-562 89 -46 173 -24 240 64 43 57 51 51 52 -38 l1 -52 50 21 50 20 2 429 c3
477 10 438 -67 415z m-135 -345 c106 -77 119 -303 23 -403 -67 -70 -157 -57
-202 29 -35 68 -31 271 6 336 37 64 115 81 173 38z"/>
<path d="M7450 3526 l0 -436 70 0 70 0 0 168 0 169 128 6 c146 7 213 24 274
70 64 49 91 105 91 186 0 113 -47 181 -163 235 -64 30 -67 30 -267 34 l-203 4
0 -436z m396 303 c66 -33 89 -67 89 -134 0 -107 -61 -148 -232 -153 l-113 -4
0 162 0 163 104 -5 c83 -4 113 -9 152 -29z"/>
<path d="M4407 3854 l-56 -46 -3 -71 -3 -72 -47 -3 c-46 -3 -48 -5 -48 -32 0
-27 2 -29 48 -32 l47 -3 3 -222 2 -221 35 -31 c60 -52 144 -62 233 -25 29 12
32 17 32 55 0 46 7 44 -85 20 -42 -11 -75 -6 -87 13 -4 6 -8 102 -8 214 l0
202 60 0 60 0 0 30 c0 30 -1 30 -55 30 l-55 0 0 120 c0 66 -4 120 -9 120 -5 0
-34 -21 -64 -46z"/>
<path d="M4975 3713 c-17 -4 -134 -52 -144 -59 -2 -2 7 -19 19 -39 15 -25 28
-35 39 -31 9 3 48 17 86 30 147 53 221 20 213 -95 -3 -44 -3 -44 -43 -46 -207
-13 -342 -101 -353 -229 -4 -46 -1 -60 21 -93 30 -44 96 -81 148 -81 57 0 133
27 184 66 44 34 48 36 58 18 18 -32 59 -64 96 -74 65 -18 71 -15 71 35 0 38
-3 45 -20 45 -35 0 -40 32 -40 237 0 237 -5 253 -89 296 -48 24 -65 27 -140
26 -47 -1 -95 -3 -106 -6z m213 -391 c3 -76 1 -85 -20 -103 -39 -33 -116 -69
-148 -69 -128 0 -146 154 -25 218 40 21 123 41 160 39 l30 -2 3 -83z"/>
<path d="M5650 3702 c-77 -27 -110 -43 -110 -56 1 -6 11 -24 24 -40 l24 -28
68 27 c48 20 88 28 132 29 58 1 66 -1 88 -28 21 -23 24 -37 22 -80 l-3 -51
-45 -2 c-167 -10 -296 -74 -336 -168 -21 -52 -18 -116 9 -155 65 -98 205 -103
330 -13 27 19 50 33 51 31 1 -2 10 -15 19 -30 21 -33 61 -55 116 -64 l41 -7 0
47 c0 39 -3 46 -20 46 -35 0 -40 32 -40 234 0 234 -2 241 -79 296 -47 33 -208
40 -291 12z m248 -373 c3 -91 -10 -114 -93 -155 -95 -46 -171 -20 -181 62 -6
47 9 77 57 116 36 29 139 59 189 55 24 -2 25 -5 28 -78z"/>
<path d="M8353 3702 l-43 -16 0 -298 0 -298 60 0 60 0 0 178 0 178 28 26 c59
55 92 70 158 76 l64 5 0 83 c0 94 -3 97 -64 60 -52 -32 -110 -88 -147 -142
-16 -24 -34 -44 -39 -44 -6 0 -10 45 -10 105 0 116 2 114 -67 87z"/>
<path d="M9000 3704 c-46 -20 -106 -79 -132 -129 -16 -30 -22 -65 -26 -142 -6
-143 15 -218 80 -282 57 -56 104 -75 188 -75 104 0 175 37 227 118 68 106 71
274 5 401 -43 85 -117 125 -232 124 -44 0 -89 -6 -110 -15z m191 -97 c53 -35
72 -99 67 -222 -6 -153 -48 -215 -145 -215 -106 0 -159 88 -151 254 4 101 30
166 78 192 40 21 112 17 151 -9z"/>
<path d="M3360 2940 l0 -40 3320 0 3320 0 0 40 0 40 -3320 0 -3320 0 0 -40z"/>
<path d="M3454 2638 c4 -18 7 -41 7 -50 0 -10 4 -18 10 -18 5 0 9 23 9 50 0
39 -3 50 -16 50 -13 0 -15 -7 -10 -32z"/>
<path d="M3289 2586 c16 -19 44 -21 39 -3 -3 6 -15 14 -28 15 -21 3 -22 2 -11
-12z"/>
<path d="M5495 2549 c-4 -5 -11 -54 -15 -107 -5 -53 -12 -111 -16 -129 -3 -17
-2 -39 4 -49 9 -15 11 -14 27 10 13 20 21 59 27 139 4 62 5 120 2 130 -6 19
-20 22 -29 6z"/>
<path d="M3647 2483 c-10 -10 -8 -45 2 -39 11 7 21 46 12 46 -4 0 -11 -3 -14
-7z"/>
<path d="M3420 2461 c0 -6 5 -13 10 -16 6 -3 10 1 10 9 0 9 -4 16 -10 16 -5 0
-10 -4 -10 -9z"/>
<path d="M3887 1859 c14 -14 103 -26 133 -18 34 9 12 16 -74 23 -47 4 -66 2
-59 -5z"/>
<path d="M405 1750 c3 -5 15 -10 26 -10 10 0 19 5 19 10 0 6 -12 10 -26 10
-14 0 -23 -4 -19 -10z"/>
<path d="M4465 1600 c3 -5 13 -10 21 -10 8 0 12 5 9 10 -3 6 -13 10 -21 10 -8
0 -12 -4 -9 -10z"/>
<path d="M4665 1468 c-5 -15 -2 -26 12 -37 11 -9 29 -32 41 -51 19 -33 82
-100 82 -88 0 7 -27 56 -50 93 -11 17 -22 37 -26 45 -26 64 -47 78 -59 38z"/>
<path d="M3986 1461 c-4 -7 -5 -15 -2 -18 9 -9 19 4 14 18 -4 11 -6 11 -12 0z"/>
<path d="M3944 1425 c-19 -14 -18 -14 4 -15 13 0 22 6 22 15 0 19 -1 19 -26 0z"/>
<path d="M3675 1270 c-3 -5 1 -10 10 -10 9 0 13 5 10 10 -3 6 -8 10 -10 10 -2
0 -7 -4 -10 -10z"/>
</g>
</svg>
